<?xml version="1.0" encoding="UTF-8" standalone="no"?>
<svg xmlns:ffdec="https://www.free-decompiler.com/flash" xmlns:xlink="http://www.w3.org/1999/xlink"
     ffdec:objectType="frame" height="60.0px" width="60.0px" xmlns="http://www.w3.org/2000/svg">
    <g transform="matrix(1.0, 0.0, 0.0, 1.0, 0.0, 0.0)">
        <use ffdec:characterId="4" ffdec:characterName="item" height="60.0"
             transform="matrix(1.0, 0.0, 0.0, 1.0, 0.0, 0.0)" width="60.0" xlink:href="#sprite0"/>
    </g>
    <defs>
        <g id="sprite0" transform="matrix(1.0, 0.0, 0.0, 1.0, 0.0, 0.0)">
            <use ffdec:characterId="1" height="60.0" transform="matrix(1.0, 0.0, 0.0, 1.0, 0.0, 0.0)" width="60.0"
                 xlink:href="#shape0"/>
            <use ffdec:characterId="3" height="54.3" transform="matrix(1.0, 0.0, 0.0, 1.0, 3.3, 3.3)" width="53.45"
                 xlink:href="#sprite1"/>
        </g>
        <g id="shape0" transform="matrix(1.0, 0.0, 0.0, 1.0, 0.0, 0.0)">
            <path d="M0.0 0.0 L60.0 0.0 60.0 60.0 0.0 60.0 0.0 0.0" fill="#33cc66" fill-opacity="0.0"
                  fill-rule="evenodd" stroke="none"/>
        </g>
        <g id="sprite1" transform="matrix(1.0, 0.0, 0.0, 1.0, 51.6, 52.45)">
            <use ffdec:characterId="2" height="54.3" transform="matrix(1.0, 0.0, 0.0, 1.0, -51.6, -52.45)" width="53.45"
                 xlink:href="#shape1"/>
        </g>
        <g id="shape1" transform="matrix(1.0, 0.0, 0.0, 1.0, 51.6, 52.45)">
            <path d="M-40.55 -33.2 L-33.15 -40.85 Q-22.9 -50.6 -9.05 -50.6 -3.75 -49.95 -1.45 -45.25 0.4 -41.55 -0.1 -37.4 -0.6 -32.85 -2.4 -28.55 -4.9 -22.65 -8.95 -17.8 L-16.65 -9.85 Q-25.9 -1.35 -38.3 0.0 -43.95 0.25 -47.2 -4.15 -50.6 -8.7 -49.45 -14.5 -47.4 -24.95 -40.55 -33.2 Z"
                  fill="none" stroke="#3797bf" stroke-linecap="round" stroke-linejoin="round" stroke-width="3.7"/>
            <path d="M-46.55 -17.7 Q-45.9 -19.5 -44.65 -20.65 L-44.1 -21.15 Q-41.3 -17.4 -38.95 -13.4 -38.35 -12.35 -37.4 -11.45 -38.9 -7.05 -44.05 -6.35 -46.25 -6.3 -46.85 -8.25 -48.35 -12.95 -46.55 -17.7 M-7.8 -45.6 Q-8.45 -42.75 -10.1 -40.1 L-11.35 -38.25 -13.1 -38.6 Q-16.75 -41.8 -21.5 -43.25 L-23.25 -43.75 Q-17.45 -48.85 -9.75 -48.4 -7.25 -48.0 -7.8 -45.6 M-18.85 -43.35 L-16.6 -43.7 Q-16.25 -44.25 -16.6 -44.65 -18.25 -46.75 -19.3 -44.2 L-18.85 -43.35 M-10.3 -46.8 L-10.65 -47.1 Q-14.25 -48.5 -15.85 -45.45 L-15.45 -44.9 -10.55 -45.8 -10.3 -46.8"
                  fill="#d7dbda" fill-rule="evenodd" stroke="none"/>
            <path d="M-46.55 -17.7 Q-48.35 -12.95 -46.85 -8.25 -46.25 -6.3 -44.05 -6.35 -38.9 -7.05 -37.4 -11.45 -38.35 -12.35 -38.95 -13.4 -41.3 -17.4 -44.1 -21.15 L-44.65 -20.65 Q-45.9 -19.5 -46.55 -17.7 M-44.05 -5.45 Q-48.8 -5.5 -48.45 -10.65 -47.65 -22.1 -40.5 -31.6 L-39.35 -30.25 -40.5 -27.45 Q-42.55 -22.75 -39.75 -18.2 -37.4 -14.45 -33.85 -11.75 -37.05 -8.8 -40.9 -6.35 -42.35 -5.4 -44.05 -5.45 M-9.0 -38.45 L-11.65 -34.65 Q-16.35 -41.05 -24.3 -41.85 -27.0 -41.5 -29.45 -40.1 L-31.5 -40.2 Q-22.4 -48.95 -9.95 -49.75 -8.25 -49.6 -6.85 -48.9 -4.2 -46.6 -6.0 -43.3 L-9.0 -38.45 M-7.8 -45.6 Q-7.25 -48.0 -9.75 -48.4 -17.45 -48.85 -23.25 -43.75 L-21.5 -43.25 Q-16.75 -41.8 -13.1 -38.6 L-11.35 -38.25 -10.1 -40.1 Q-8.45 -42.75 -7.8 -45.6"
                  fill="#9aa9a8" fill-rule="evenodd" stroke="none"/>
            <path d="M-16.65 -9.85 Q-25.9 -1.35 -38.3 0.0 -43.95 0.25 -47.2 -4.15 -50.6 -8.7 -49.45 -14.5 -47.4 -24.95 -40.55 -33.2 L-37.75 -30.45 -40.25 -24.5 Q-39.8 -21.9 -38.55 -19.55 -34.4 -11.6 -25.55 -9.5 L-19.15 -12.25 -18.25 -11.35 -17.1 -10.35 -16.65 -9.85 M-33.15 -40.85 Q-22.9 -50.6 -9.05 -50.6 -3.75 -49.95 -1.45 -45.25 0.4 -41.55 -0.1 -37.4 -0.6 -32.85 -2.4 -28.55 -4.9 -22.65 -8.95 -17.8 L-9.1 -17.95 -9.7 -18.55 -10.3 -19.1 -10.5 -19.3 -11.5 -20.25 -9.0 -26.8 Q-10.45 -31.4 -13.55 -35.05 -17.85 -40.15 -24.55 -41.0 L-30.4 -38.1 -33.15 -40.85 M-44.05 -5.45 Q-42.35 -5.4 -40.9 -6.35 -37.05 -8.8 -33.85 -11.75 -37.4 -14.45 -39.75 -18.2 -42.55 -22.75 -40.5 -27.45 L-39.35 -30.25 -40.5 -31.6 Q-47.65 -22.1 -48.45 -10.65 -48.8 -5.5 -44.05 -5.45 M-0.95 -41.0 Q-2.45 -30.3 -8.95 -21.6 L-9.15 -21.2 -8.35 -20.25 Q-2.35 -28.0 -1.05 -38.2 -0.85 -39.6 -0.95 -41.0 M-9.0 -38.45 L-6.0 -43.3 Q-4.2 -46.6 -6.85 -48.9 -8.25 -49.6 -9.95 -49.75 -22.4 -48.95 -31.5 -40.2 L-29.45 -40.1 Q-27.0 -41.5 -24.3 -41.85 -16.35 -41.05 -11.65 -34.65 L-9.0 -38.45 M-38.95 -1.15 L-36.5 -1.35 Q-26.7 -2.8 -18.75 -9.35 L-19.6 -10.15 -20.9 -9.3 Q-26.7 -4.95 -33.5 -2.5 L-38.95 -1.15"
                  fill="#607b7d" fill-rule="evenodd" stroke="none"/>
            <path d="M-10.3 -46.8 L-10.55 -45.8 -15.45 -44.9 -15.85 -45.45 Q-14.25 -48.5 -10.65 -47.1 L-10.3 -46.8 M-18.85 -43.35 L-19.3 -44.2 Q-18.25 -46.75 -16.6 -44.65 -16.25 -44.25 -16.6 -43.7 L-18.85 -43.35 M-29.85 -27.45 L-31.55 -28.1 -31.5 -28.55 Q-29.6 -34.35 -23.25 -34.7 L-22.15 -33.1 -23.0 -31.2 Q-25.75 -28.2 -29.6 -27.45 L-29.85 -27.45 M-22.95 -27.3 L-22.0 -27.5 Q-20.8 -25.5 -22.85 -23.8 -24.55 -22.5 -25.75 -24.4 L-25.65 -24.8 Q-24.7 -26.45 -22.95 -27.3 M-15.4 -23.05 Q-15.5 -19.55 -18.65 -17.35 L-18.85 -17.5 Q-17.35 -19.35 -16.35 -21.55 L-15.6 -22.9 -15.4 -23.05"
                  fill="#ffffff" fill-rule="evenodd" stroke="none"/>
            <path d="M-22.8 -37.5 L-23.2 -36.8 Q-27.1 -37.35 -31.0 -35.95 L-32.3 -35.85 Q-33.55 -36.3 -33.9 -37.65 L-33.15 -38.3 -31.3 -36.9 Q-27.8 -38.15 -24.15 -38.5 -23.1 -38.4 -22.8 -37.5 M-36.85 -30.25 L-36.5 -31.3 Q-37.35 -32.6 -37.65 -34.15 L-37.65 -34.4 Q-36.2 -34.55 -35.6 -32.6 -34.85 -30.05 -36.15 -27.5 -37.2 -25.5 -36.3 -23.4 -35.85 -22.35 -36.6 -21.85 -38.35 -23.0 -38.1 -25.55 -37.9 -27.8 -36.95 -30.0 L-36.85 -30.25"
                  fill="#f7f7f7" fill-rule="evenodd" stroke="none"/>
            <path d="M-14.8 -35.2 L-16.6 -33.25 Q-18.0 -34.3 -19.6 -34.9 -26.25 -37.9 -32.4 -34.25 L-32.7 -34.45 -34.25 -35.85 -35.5 -37.4 -33.7 -39.55 -31.05 -37.15 -29.0 -37.75 -26.25 -38.7 Q-19.85 -40.0 -14.8 -35.2 M-22.8 -37.5 Q-23.1 -38.4 -24.15 -38.5 -27.8 -38.15 -31.3 -36.9 L-33.15 -38.3 -33.9 -37.65 Q-33.55 -36.3 -32.3 -35.85 L-31.0 -35.95 Q-27.1 -37.35 -23.2 -36.8 L-22.8 -37.5 M-36.85 -30.25 L-39.1 -33.3 -37.05 -35.9 -33.8 -32.5 Q-38.05 -25.2 -33.6 -18.2 L-32.4 -16.5 -34.1 -14.65 Q-38.5 -18.65 -38.95 -24.6 -39.0 -25.35 -38.65 -26.1 L-36.95 -30.0 Q-37.9 -27.8 -38.1 -25.55 -38.35 -23.0 -36.6 -21.85 -35.85 -22.35 -36.3 -23.4 -37.2 -25.5 -36.15 -27.5 -34.85 -30.05 -35.6 -32.6 -36.2 -34.55 -37.65 -34.4 L-37.65 -34.15 Q-37.35 -32.6 -36.5 -31.3 L-36.85 -30.25"
                  fill="#bbbbbb" fill-rule="evenodd" stroke="none"/>
            <path d="M-24.8 -35.9 Q-20.3 -35.85 -17.1 -32.85 L-16.35 -32.1 Q-14.9 -29.95 -14.05 -27.8 -13.05 -22.9 -15.95 -18.95 L-16.9 -17.7 Q-20.0 -14.45 -24.5 -14.55 -26.6 -14.6 -28.35 -15.35 -35.25 -18.55 -35.05 -26.25 -34.55 -29.85 -32.2 -32.4 L-31.55 -33.05 Q-28.7 -35.65 -24.8 -35.9 M-23.0 -31.2 L-22.15 -33.1 -23.25 -34.7 Q-29.6 -34.35 -31.5 -28.55 L-31.55 -28.1 -29.85 -27.45 Q-29.4 -26.35 -28.6 -25.45 -27.4 -24.25 -25.75 -24.4 -24.55 -22.5 -22.85 -23.8 -20.8 -25.5 -22.0 -27.5 L-22.95 -27.3 -23.0 -31.2 M-31.8 -25.05 L-32.9 -23.05 Q-32.25 -16.9 -25.85 -16.3 L-24.15 -16.2 Q-18.8 -17.0 -16.9 -22.25 -15.6 -25.7 -17.85 -28.25 -20.5 -28.7 -21.05 -25.7 -21.5 -23.45 -23.6 -22.65 L-25.35 -22.7 -31.2 -25.2 -31.8 -25.05 M-15.4 -23.05 L-15.6 -22.9 -16.35 -21.55 Q-17.35 -19.35 -18.85 -17.5 L-18.65 -17.35 Q-15.5 -19.55 -15.4 -23.05"
                  fill="#3797bf" fill-rule="evenodd" stroke="none"/>
            <path d="M-29.85 -27.45 L-29.6 -27.45 Q-25.75 -28.2 -23.0 -31.2 L-22.95 -27.3 Q-24.7 -26.45 -25.65 -24.8 L-25.75 -24.4 Q-27.4 -24.25 -28.6 -25.45 -29.4 -26.35 -29.85 -27.45"
                  fill="#2c7898" fill-rule="evenodd" stroke="none"/>
            <path d="M-31.8 -25.05 L-31.2 -25.2 -25.35 -22.7 -23.6 -22.65 Q-21.5 -23.45 -21.05 -25.7 -20.5 -28.7 -17.85 -28.25 -15.6 -25.7 -16.9 -22.25 -18.8 -17.0 -24.15 -16.2 L-25.85 -16.3 Q-32.25 -16.9 -32.9 -23.05 L-31.8 -25.05"
                  fill="#7edde7" fill-rule="evenodd" stroke="none"/>
            <path d="M-16.65 -9.85 L-17.1 -10.35 -13.25 -14.15 -9.7 -18.5 -9.1 -17.95 -9.7 -18.5 -9.7 -18.55 -9.1 -17.95 -8.95 -17.8 -12.85 -13.75 -16.65 -9.85 M-18.25 -11.35 L-19.15 -12.25 -25.55 -9.5 Q-34.4 -11.6 -38.55 -19.55 -39.8 -21.9 -40.25 -24.5 L-37.75 -30.45 -40.55 -33.2 -36.9 -36.95 -33.15 -40.85 -30.4 -38.1 -24.55 -41.0 Q-17.85 -40.15 -13.55 -35.05 -10.45 -31.4 -9.0 -26.8 L-11.5 -20.25 -10.5 -19.3 Q-12.4 -16.6 -14.0 -14.9 L-16.9 -17.7 -14.0 -14.9 -14.05 -14.9 Q-16.05 -12.7 -18.2 -11.35 L-18.25 -11.35 M-16.9 -17.7 L-15.95 -18.95 Q-13.05 -22.9 -14.05 -27.8 -14.9 -29.95 -16.35 -32.1 L-17.1 -32.85 Q-20.3 -35.85 -24.8 -35.9 -28.85 -35.75 -31.8 -33.0 L-32.3 -32.5 -36.9 -36.95 -32.3 -32.5 Q-34.4 -30.2 -35.0 -26.85 L-35.05 -26.25 Q-35.25 -18.55 -28.35 -15.35 -26.6 -14.6 -24.5 -14.55 -20.0 -14.45 -16.9 -17.7 M-14.8 -35.2 Q-19.85 -40.0 -26.25 -38.7 L-29.0 -37.75 -31.05 -37.15 -33.7 -39.55 -35.5 -37.4 -34.25 -35.85 -32.7 -34.45 -32.4 -34.25 Q-26.25 -37.9 -19.6 -34.9 -18.0 -34.3 -16.6 -33.25 L-14.8 -35.2 M-36.95 -30.0 L-38.65 -26.1 Q-39.0 -25.35 -38.95 -24.6 -38.5 -18.65 -34.1 -14.65 L-32.4 -16.5 -33.6 -18.2 Q-38.05 -25.2 -33.8 -32.5 L-37.05 -35.9 -39.1 -33.3 -36.85 -30.25 -36.95 -30.0 M-12.85 -13.75 L-13.25 -14.15 -12.85 -13.75 M-19.15 -12.25 L-18.2 -11.35 -19.15 -12.25"
                  fill="#737373" fill-rule="evenodd" stroke="none"/>
            <path d="M-17.1 -10.35 L-18.25 -11.35 -18.2 -11.35 Q-16.05 -12.7 -14.05 -14.9 L-14.0 -14.9 Q-12.4 -16.6 -10.5 -19.3 L-10.3 -19.1 -9.7 -18.5 -10.3 -19.1 -9.7 -18.55 -9.7 -18.5 -13.25 -14.15 -14.0 -14.9 -13.25 -14.15 -17.1 -10.35 -18.2 -11.35 -17.1 -10.35 M-0.95 -41.0 Q-0.85 -39.6 -1.05 -38.2 -2.35 -28.0 -8.35 -20.25 L-9.15 -21.2 -8.95 -21.6 Q-2.45 -30.3 -0.95 -41.0 M-38.95 -1.15 L-33.5 -2.5 Q-26.7 -4.95 -20.9 -9.3 L-19.6 -10.15 -18.75 -9.35 Q-26.7 -2.8 -36.5 -1.35 L-38.95 -1.15"
                  fill="#e1e1e1" fill-rule="evenodd" stroke="none"/>
            <path d="M-40.55 -33.2 Q-47.4 -24.95 -49.45 -14.5 -50.6 -8.7 -47.2 -4.15 -43.95 0.25 -38.3 0.0 -25.9 -1.35 -16.65 -9.85 L-12.85 -13.75 -8.95 -17.8 Q-4.9 -22.65 -2.4 -28.55 -0.6 -32.85 -0.1 -37.4 0.4 -41.55 -1.45 -45.25 -3.75 -49.95 -9.05 -50.6 -22.9 -50.6 -33.15 -40.85"
                  fill="none" stroke="#1a3866" stroke-linecap="round" stroke-linejoin="round" stroke-width="0.5"/>
            <path d="M-16.65 -9.85 L-17.1 -10.35 -18.2 -11.35 -19.15 -12.25 -25.55 -9.5 Q-34.4 -11.6 -38.55 -19.55 -39.8 -21.9 -40.25 -24.5 L-37.75 -30.45 -40.55 -33.2 -37.05 -37.1 -33.15 -40.85 -30.4 -38.1 -24.55 -41.0 Q-17.85 -40.15 -13.55 -35.05 -10.45 -31.4 -9.0 -26.8 L-11.5 -20.25 -10.5 -19.3 -10.3 -19.1 -9.7 -18.5 -9.1 -17.95 -8.95 -17.8 M-24.8 -35.9 Q-20.3 -35.85 -17.1 -32.85 L-16.35 -32.1 Q-14.9 -29.95 -14.05 -27.8 -13.05 -22.9 -15.95 -18.95 L-16.9 -17.7 -14.0 -14.9 -13.25 -14.15 -12.85 -13.75 M-36.9 -36.95 L-32.3 -32.5 -32.2 -32.4 Q-34.55 -29.85 -35.05 -26.25 -35.25 -18.55 -28.35 -15.35 -26.6 -14.6 -24.5 -14.55 -20.0 -14.45 -16.9 -17.7 M-24.8 -35.9 Q-28.7 -35.65 -31.55 -33.05 L-32.2 -32.4 M-37.05 -37.1 L-36.9 -36.95"
                  fill="none" stroke="#151515" stroke-linecap="round" stroke-linejoin="round" stroke-width="0.5"/>
        </g>
    </defs>
</svg>
