<?xml version="1.0" encoding="UTF-8" standalone="no"?>
<svg xmlns:ffdec="https://www.free-decompiler.com/flash" xmlns:xlink="http://www.w3.org/1999/xlink"
     ffdec:objectType="frame" height="30.0px" width="30.0px" xmlns="http://www.w3.org/2000/svg">
    <g transform="matrix(1.0, 0.0, 0.0, 1.0, 0.0, 0.0)">
        <use ffdec:characterId="1754" height="30.0" transform="matrix(1.0, 0.0, 0.0, 1.0, 0.0, 0.0)" width="30.0"
             xlink:href="#shape0"/>
    </g>
    <defs>
        <g id="shape0" transform="matrix(1.0, 0.0, 0.0, 1.0, 0.0, 0.0)">
            <path d="M30.0 0.0 L30.0 30.0 0.0 30.0 0.0 0.0 30.0 0.0" fill="#33cc66" fill-opacity="0.0"
                  fill-rule="evenodd" stroke="none"/>
            <path d="M20.25 4.3 L18.65 4.5 Q17.8 4.7 16.4 3.55 15.0 2.4 13.25 2.55 11.45 2.6 9.85 4.1 L7.8 5.65 6.25 5.8 Q5.15 5.85 4.5 6.45 3.8 7.0 3.75 8.45 L3.7 9.1 3.75 8.6 Q3.8 7.15 4.5 6.6 5.15 6.0 6.25 5.95 L7.8 5.8 9.85 4.25 Q11.45 2.75 13.25 2.7 15.0 2.55 16.4 3.7 17.8 4.85 18.65 4.65 L20.25 4.45 Q22.05 4.45 23.1 5.15 24.15 5.75 24.3 7.0 24.4 8.2 25.6 9.15 26.65 10.0 26.75 10.85 26.75 9.9 25.6 9.0 24.4 8.05 24.3 6.85 24.15 5.6 23.1 5.0 22.05 4.3 20.25 4.3 M26.75 10.85 L26.75 10.95 26.75 11.0 Q26.75 11.65 26.2 12.3 L26.15 12.4 25.8 12.8 25.7 13.05 25.7 13.1 26.3 14.25 Q27.0 15.35 27.0 16.05 L27.0 16.15 27.0 16.2 Q27.0 17.75 25.7 18.2 L25.65 18.2 24.25 18.3 Q23.35 18.35 23.05 19.0 21.6 21.75 18.8 21.75 L17.0 21.55 4.15 27.7 4.45 27.45 4.15 27.55 10.55 21.4 5.75 20.15 5.85 20.05 5.75 20.0 7.35 17.9 7.05 17.55 6.7 17.25 5.9 16.85 3.85 15.9 Q3.0 15.45 3.0 14.4 L3.0 14.25 Q3.0 13.85 3.45 13.0 L3.9 12.2 3.85 11.75 3.8 10.95 3.75 10.05 3.7 9.1 M25.7 13.05 L25.65 13.15 26.3 14.4 Q27.0 15.45 27.0 16.15 M25.8 12.8 L25.65 13.15 M17.0 21.55 L17.9 21.1 14.45 20.15 11.35 19.3 11.5 19.2 11.8 19.0 11.9 19.0 21.6 12.5 21.65 12.45 11.35 12.45 7.4 17.95 5.85 20.05 M7.4 17.95 L7.05 17.55 M3.0 14.4 Q3.0 13.95 3.45 13.15 L3.9 12.2 M11.5 19.2 L14.25 19.95 13.45 19.3 12.55 18.85 12.35 18.9 11.9 19.0 11.85 19.0 11.8 19.0 M14.45 20.15 L14.25 19.95 M10.55 21.4 L10.65 21.4 4.45 27.45"
                  fill="none" stroke="#ffffff" stroke-linecap="round" stroke-linejoin="round" stroke-width="3.5"/>
            <path d="M3.8 10.8 L3.75 8.45 Q3.8 7.0 4.5 6.45 5.15 5.85 6.25 5.8 L7.8 5.65 9.85 4.1 Q11.45 2.6 13.25 2.55 15.0 2.4 16.4 3.55 17.8 4.7 18.65 4.5 L20.25 4.3 Q22.05 4.3 23.1 5.0 24.15 5.6 24.3 6.85 24.4 8.05 25.6 9.0 26.75 9.9 26.75 10.85 26.75 11.5 26.2 12.15 25.65 12.75 25.65 13.0 L26.3 14.25 Q27.0 15.35 27.0 16.05 27.0 17.6 25.7 18.05 L25.7 18.0 Q24.8 15.85 23.25 13.95 20.8 11.1 18.4 11.1 16.75 11.1 13.95 12.5 11.1 13.9 8.95 13.9 6.5 13.9 5.0 12.4 L3.8 10.8"
                  fill="url(#gradient0)" fill-rule="evenodd" stroke="none"/>
            <path d="M25.65 18.05 L24.25 18.15 Q23.35 18.2 23.05 18.85 21.6 21.6 18.8 21.6 16.15 21.6 14.6 20.15 13.15 18.7 12.55 18.7 L10.95 19.15 9.5 19.55 Q8.3 19.55 7.7 18.35 7.1 17.1 5.9 16.7 L3.85 15.75 Q3.0 15.3 3.0 14.25 3.0 13.85 3.45 13.0 L3.9 12.05 3.8 10.8 5.0 12.4 Q6.5 13.9 8.95 13.9 11.1 13.9 13.95 12.5 16.75 11.1 18.4 11.1 20.8 11.1 23.25 13.95 24.8 15.85 25.7 18.0 L25.65 18.05"
                  fill="url(#gradient1)" fill-rule="evenodd" stroke="none"/>
            <path d="M3.8 10.8 L3.75 8.45 Q3.8 7.0 4.5 6.45 5.15 5.85 6.25 5.8 L7.8 5.65 9.85 4.1 Q11.45 2.6 13.25 2.55 15.0 2.4 16.4 3.55 17.8 4.7 18.65 4.5 L20.25 4.3 Q22.05 4.3 23.1 5.0 24.15 5.6 24.3 6.85 24.4 8.05 25.6 9.0 26.75 9.9 26.75 10.85 26.75 11.5 26.2 12.15 25.65 12.75 25.65 13.0 L26.3 14.25 Q27.0 15.35 27.0 16.05 27.0 17.6 25.7 18.05 L25.65 18.05 24.25 18.15 Q23.35 18.2 23.05 18.85 21.6 21.6 18.8 21.6 16.15 21.6 14.6 20.15 13.15 18.7 12.55 18.7 L10.95 19.15 9.5 19.55 Q8.3 19.55 7.7 18.35 7.1 17.1 5.9 16.7 L3.85 15.75 Q3.0 15.3 3.0 14.25 3.0 13.85 3.45 13.0 L3.9 12.05 3.8 10.8 Z"
                  fill="none" stroke="#2d2964" stroke-linecap="round" stroke-linejoin="round" stroke-width="1.0"/>
            <path d="M4.15 27.55 L10.65 21.25 5.75 20.0 11.35 12.3 20.1 12.3 9.45 19.4 15.5 21.1 4.15 27.55 M10.5 15.9 L10.55 16.25 10.95 16.35 12.6 14.15 Q12.6 13.05 11.55 14.35 L10.5 15.9 M9.85 16.8 Q9.3 17.15 9.3 17.55 L9.35 17.9 9.7 18.0 Q10.0 18.0 10.25 17.65 L10.4 17.2 Q10.4 16.55 9.85 16.8"
                  fill="url(#gradient2)" fill-rule="evenodd" stroke="none"/>
            <path d="M9.85 16.8 Q10.4 16.55 10.4 17.2 L10.25 17.65 Q10.0 18.0 9.7 18.0 L9.35 17.9 9.3 17.55 Q9.3 17.15 9.85 16.8 M10.5 15.9 L11.55 14.35 Q12.6 13.05 12.6 14.15 L10.95 16.35 10.55 16.25 10.5 15.9"
                  fill="#ffffff" fill-rule="evenodd" stroke="none"/>
            <path d="M4.15 27.55 L15.5 21.1 9.45 19.4 20.1 12.3 21.65 12.3 11.35 19.15 17.9 20.95 4.15 27.55"
                  fill="url(#gradient3)" fill-rule="evenodd" stroke="none"/>
            <path d="M20.1 12.3 L11.35 12.3 5.75 20.0 10.65 21.25 4.15 27.55 17.9 20.95 11.35 19.15 21.65 12.3 20.1 12.3 Z"
                  fill="none" stroke="#f48a34" stroke-linecap="round" stroke-linejoin="round" stroke-width="1.0"/>
            <path d="M13.7 6.0 L12.9 7.15 Q12.0 7.95 11.1 7.95 10.2 7.95 10.1 7.0 10.1 5.95 11.95 5.25 13.7 4.45 13.7 6.0 M9.3 8.4 Q9.3 9.5 8.25 9.5 7.1 9.5 7.1 8.4 7.1 7.35 8.25 7.35 9.3 7.25 9.3 8.4"
                  fill="#dce0ef" fill-rule="evenodd" stroke="none"/>
        </g>
        <linearGradient gradientTransform="matrix(-0.0015, 0.0054, -0.0146, -0.0037, 15.95, 10.05)"
                        gradientUnits="userSpaceOnUse" id="gradient0" spreadMethod="pad" x1="-819.2" x2="819.2">
            <stop offset="0.0" stop-color="#aeb1dc"/>
            <stop offset="1.0" stop-color="#808ac7"/>
        </linearGradient>
        <linearGradient gradientTransform="matrix(0.0, 0.0051, -0.0139, 0.0, 14.4, 16.45)"
                        gradientUnits="userSpaceOnUse" id="gradient1" spreadMethod="pad" x1="-819.2" x2="819.2">
            <stop offset="0.0" stop-color="#404080"/>
            <stop offset="1.0" stop-color="#8188bc"/>
        </linearGradient>
        <linearGradient gradientTransform="matrix(0.0026, -0.0088, 0.0072, 0.0017, 12.45, 18.45)"
                        gradientUnits="userSpaceOnUse" id="gradient2" spreadMethod="pad" x1="-819.2" x2="819.2">
            <stop offset="0.0" stop-color="#fdaf4d"/>
            <stop offset="1.0" stop-color="#fcdd69"/>
        </linearGradient>
        <linearGradient gradientTransform="matrix(-0.0033, 0.0106, -0.0072, -0.0018, 13.0, 19.85)"
                        gradientUnits="userSpaceOnUse" id="gradient3" spreadMethod="pad" x1="-819.2" x2="819.2">
            <stop offset="0.0" stop-color="#ffffb7"/>
            <stop offset="1.0" stop-color="#ffcf60"/>
        </linearGradient>
    </defs>
</svg>
