<?xml version="1.0" encoding="UTF-8" standalone="no"?>
<svg xmlns:ffdec="https://www.free-decompiler.com/flash" xmlns:xlink="http://www.w3.org/1999/xlink"
     ffdec:objectType="frame" height="30.05px" width="30.0px" xmlns="http://www.w3.org/2000/svg">
    <g transform="matrix(1.0, 0.0, 0.0, 1.0, 0.0, 0.0)">
        <use ffdec:characterId="1" height="30.0" transform="matrix(1.0, 0.0, 0.0, 1.0, 0.0, 0.0)" width="30.0"
             xlink:href="#shape0"/>
        <use ffdec:characterId="3" height="30.0" transform="matrix(1.0, 0.0, 0.0, 1.0, 0.15, 0.05)" width="29.75"
             xlink:href="#sprite0"/>
    </g>
    <defs>
        <g id="shape0" transform="matrix(1.0, 0.0, 0.0, 1.0, 0.0, 0.0)">
            <path d="M0.0 0.0 L30.0 0.0 30.0 30.0 0.0 30.0 0.0 0.0" fill="#33cc66" fill-opacity="0.0"
                  fill-rule="evenodd" stroke="none"/>
        </g>
        <g id="sprite0" transform="matrix(1.0, 0.0, 0.0, 1.0, 0.0, 0.0)">
            <use ffdec:characterId="2" height="30.0" transform="matrix(1.0, 0.0, 0.0, 1.0, 0.0, 0.0)" width="29.75"
                 xlink:href="#shape1"/>
        </g>
        <g id="shape1" transform="matrix(1.0, 0.0, 0.0, 1.0, 0.0, 0.0)">
            <path d="M25.85 4.4 L25.9 4.4 25.85 4.45 25.85 4.4 M14.75 0.1 L14.8 0.0 14.85 0.05 14.8 0.1 14.75 0.1"
                  fill="#ec8e02" fill-rule="evenodd" stroke="none"/>
            <path d="M25.85 4.45 L25.9 4.4 25.9 4.45 25.85 4.45" fill="url(#gradient0)" fill-rule="evenodd"
                  stroke="none"/>
            <path d="M29.7 15.15 L29.75 15.15 29.7 15.2 24.65 16.45 24.7 15.5 24.7 15.3 24.7 15.05 24.7 14.95 24.7 14.3 29.7 15.15 M14.85 30.0 L14.8 30.0 13.65 24.65 14.8 24.7 15.0 24.7 15.95 24.7 14.85 30.0 M0.0 15.1 L0.0 15.05 5.4 13.9 5.3 14.55 5.25 14.95 5.25 15.0 5.25 15.2 5.25 15.3 5.3 15.7 5.3 15.9 0.0 15.1 M25.85 4.45 L25.9 4.45 22.9 9.8 21.85 8.7 21.65 8.45 21.1 8.05 25.35 4.8 25.45 4.7 25.85 4.45 M20.95 22.75 L21.0 22.7 21.8 22.0 21.9 21.95 21.95 21.9 22.0 21.9 21.95 21.85 21.95 21.8 22.35 21.45 25.5 25.45 25.9 25.9 20.95 22.75 M13.8 6.1 L14.8 0.1 16.7 6.15 15.0 6.0 14.8 6.0 13.8 6.1 M8.1 8.7 L4.45 4.4 9.65 7.5 8.5 8.3 8.15 8.6 8.1 8.7 M7.35 21.2 L7.95 21.8 8.1 21.95 9.15 22.9 4.6 25.8 4.85 25.2 7.35 21.2"
                  fill="#ffec2e" fill-rule="evenodd" stroke="none"/>
            <path d="M25.85 4.4 L25.85 4.45 25.45 4.7 25.35 4.8 21.1 8.05 20.95 7.95 Q19.05 6.5 16.7 6.15 L14.8 0.1 13.8 6.1 Q11.45 6.3 9.65 7.5 L4.45 4.4 8.1 8.7 8.05 8.75 Q5.75 11.0 5.4 13.9 L0.0 15.05 5.0 11.05 4.45 4.4 10.85 5.15 14.75 0.1 14.8 0.1 14.85 0.05 19.0 5.15 25.85 4.4 M25.9 4.45 L25.15 11.3 29.7 15.15 24.7 14.3 Q24.45 11.85 22.9 9.8 L25.9 4.45 M29.7 15.2 L25.1 19.1 25.95 25.85 25.5 25.45 22.35 21.45 Q24.35 19.3 24.65 16.45 L29.7 15.2 M25.9 25.9 L18.85 25.4 14.85 30.0 15.95 24.7 Q18.75 24.45 20.95 22.75 L25.9 25.9 M14.8 30.0 L10.95 25.4 4.6 25.8 4.55 25.8 4.95 19.3 0.0 15.1 5.3 15.9 Q5.45 18.9 7.35 21.2 L4.85 25.2 4.6 25.8 9.15 22.9 Q11.15 24.3 13.65 24.65 L14.8 30.0"
                  fill="#ba1b1b" fill-rule="evenodd" stroke="none"/>
            <path d="M22.9 9.8 Q24.45 11.85 24.7 14.3 L24.7 14.95 24.7 15.05 24.7 15.3 24.7 15.5 24.65 16.45 Q24.35 19.3 22.35 21.45 L21.95 21.8 21.95 21.85 21.95 21.9 21.9 21.95 21.8 22.0 21.0 22.7 20.95 22.75 Q18.75 24.45 15.95 24.7 L15.0 24.7 14.8 24.7 13.65 24.65 Q11.15 24.3 9.15 22.9 L8.1 21.95 7.95 21.8 7.35 21.2 Q5.45 18.9 5.3 15.9 L5.3 15.7 5.25 15.3 5.25 15.2 5.25 15.0 5.25 14.95 5.3 14.55 5.4 13.9 Q5.75 11.0 8.05 8.75 L8.1 8.7 8.15 8.6 8.5 8.3 9.65 7.5 Q11.45 6.3 13.8 6.1 L14.8 6.0 15.0 6.0 16.7 6.15 Q19.05 6.5 20.95 7.95 L21.1 8.05 21.65 8.45 21.85 8.7 22.9 9.8 M23.5 15.35 Q23.5 12.0 21.0 9.55 18.5 7.25 15.05 7.25 11.5 7.25 9.0 9.55 L8.9 9.7 Q6.55 12.1 6.55 15.35 6.55 18.65 8.85 21.0 L9.0 21.15 Q11.5 23.5 15.05 23.5 18.55 23.5 21.4 20.85 23.5 18.5 23.5 15.35"
                  fill="url(#gradient1)" fill-rule="evenodd" stroke="none"/>
            <path d="M25.95 25.85 L25.95 25.9 25.9 25.9 25.5 25.45 25.95 25.85 M21.95 21.9 L21.95 21.85 22.0 21.9 21.95 21.9"
                  fill="url(#gradient2)" fill-rule="evenodd" stroke="none"/>
            <path d="M23.5 15.35 Q23.5 18.5 21.4 20.85 18.55 23.5 15.05 23.5 11.5 23.5 9.0 21.15 L8.85 21.0 Q6.55 18.65 6.55 15.35 6.55 12.1 8.9 9.7 L9.0 9.55 Q11.5 7.25 15.05 7.25 18.5 7.25 21.0 9.55 23.5 12.0 23.5 15.35"
                  fill="url(#gradient3)" fill-rule="evenodd" stroke="none"/>
            <path d="M10.55 10.0 L10.8 10.0 10.65 10.25 10.15 10.5 10.1 10.55 9.15 10.7 8.0 10.8 7.95 10.85 8.5 10.1 10.55 10.0 M19.9 12.2 L19.85 12.3 19.7 11.9 19.65 11.4 19.65 11.25 19.85 11.95 19.9 12.2 M18.3 8.95 L18.2 9.15 18.2 9.45 18.35 9.75 18.3 9.75 18.1 9.1 18.3 8.9 18.3 8.95 M19.1 10.75 L19.2 10.8 19.2 10.9 19.1 10.75"
                  fill="#775b4e" fill-rule="evenodd" stroke="none"/>
            <path d="M10.8 10.0 L11.05 10.0 11.5 10.05 10.45 12.25 10.05 13.25 9.95 13.25 9.6 13.25 10.05 12.0 10.05 11.95 10.3 11.2 9.75 11.2 9.6 11.15 8.65 11.25 Q8.2 11.4 8.2 11.8 L8.4 12.45 8.45 12.5 8.85 13.0 8.55 12.85 7.8 12.15 7.4 11.7 7.95 10.85 8.0 10.8 9.15 10.7 10.1 10.55 10.15 10.5 10.65 10.25 10.8 10.0 M16.9 22.05 L17.15 22.05 17.25 22.05 17.4 22.25 17.7 22.5 17.4 22.45 17.4 22.85 17.4 23.15 17.4 23.2 17.35 23.15 17.0 22.75 Q16.85 23.15 16.85 22.55 L16.9 22.05 M18.35 9.75 L18.35 9.8 18.45 10.25 18.4 10.3 18.4 10.45 18.1 10.1 17.95 9.8 17.9 9.7 17.9 10.05 17.7 10.0 17.4 9.95 17.25 9.9 17.4 9.6 Q17.9 8.75 18.1 8.75 L18.3 8.9 18.1 9.1 18.3 9.75 18.35 9.75 M17.9 10.2 L17.9 10.4 17.85 10.35 17.9 10.2 M6.55 15.2 L6.75 15.25 Q7.35 15.4 7.85 15.75 8.6 16.45 8.6 17.45 L8.3 18.65 7.65 19.4 7.55 19.25 7.5 19.2 7.45 19.1 7.55 18.4 Q7.55 17.95 7.15 17.5 L6.8 17.3 Q6.55 16.5 6.55 15.55 L6.55 15.2 M19.5 16.85 L19.4 16.95 Q19.25 17.05 19.35 17.35 L19.55 17.8 20.05 18.0 20.7 17.8 20.9 17.5 20.9 17.7 20.9 17.75 20.6 18.55 20.55 18.6 20.55 18.65 20.3 18.65 Q20.05 18.7 19.35 18.15 18.7 17.55 18.7 17.2 L18.75 17.1 19.0 17.0 19.1 16.95 19.5 16.85 M18.45 22.75 L18.45 22.8 18.0 22.95 17.8 23.0 17.85 22.9 18.05 22.5 18.15 22.55 18.45 22.75 M16.25 23.35 L16.2 23.35 15.8 23.4 15.95 22.65 16.1 22.35 16.5 22.95 16.25 23.35 M15.5 23.45 L15.5 23.5 14.45 23.5 14.5 23.45 Q15.35 22.45 15.5 22.65 L15.5 23.45"
                  fill="#4f3d35" fill-rule="evenodd" stroke="none"/>
            <path d="M15.2 13.55 L15.0 13.45 14.45 12.9 14.05 12.35 13.65 11.7 13.3 10.9 13.4 10.65 13.8 10.75 13.95 11.05 14.1 11.45 14.4 11.9 15.1 12.5 15.7 13.0 15.45 12.65 15.4 12.3 15.4 12.1 15.4 11.9 15.6 11.9 15.7 11.6 15.4 10.6 Q15.15 10.3 14.7 10.1 L14.1 9.85 13.85 9.4 13.85 9.25 13.9 9.15 13.65 8.8 13.35 8.4 13.55 8.4 14.0 8.6 14.1 8.7 14.2 8.75 14.4 9.1 14.3 9.1 14.15 9.1 14.8 9.6 15.8 9.85 16.45 10.45 17.4 10.9 17.5 10.8 17.5 10.65 17.65 10.7 17.9 10.45 17.9 10.4 17.9 10.2 17.9 10.05 17.9 9.7 17.95 9.8 18.1 10.1 18.4 10.45 18.4 10.3 18.45 10.25 18.35 9.8 18.35 9.75 18.2 9.45 18.2 9.15 18.3 8.95 18.4 8.75 18.7 9.15 19.1 9.45 19.8 9.65 20.15 10.55 19.9 11.0 19.7 11.15 19.65 11.25 19.65 11.4 19.7 11.9 19.85 12.3 19.9 12.2 20.05 12.05 20.2 11.7 20.25 11.75 20.35 11.95 20.35 12.2 20.25 12.95 20.15 13.25 19.95 13.75 19.95 13.8 19.35 14.2 19.15 14.4 18.95 14.8 18.9 14.9 18.85 14.9 18.55 14.95 18.2 15.1 17.8 15.2 17.0 15.1 16.45 14.75 15.9 14.15 15.4 13.65 15.2 13.55 M6.8 14.0 L6.6 14.1 6.7 13.7 6.8 14.0 M19.35 11.8 L19.45 11.1 19.25 10.55 18.95 10.1 18.8 10.1 18.6 10.45 18.45 10.7 18.45 10.75 Q18.2 11.25 18.3 11.45 L18.5 11.8 18.6 12.15 18.6 12.35 18.5 12.45 17.9 12.1 17.2 11.45 17.05 11.35 15.7 10.25 15.55 10.25 16.25 11.3 16.95 12.45 17.0 12.7 Q16.4 12.6 16.4 13.05 L16.5 13.25 16.5 13.4 16.4 13.55 16.1 13.6 15.65 13.5 15.85 13.65 16.5 14.15 Q17.5 14.9 17.85 14.85 L18.2 14.5 18.55 14.1 18.95 13.9 19.15 13.45 19.3 12.15 19.35 11.8 M15.4 13.25 L15.4 13.3 15.55 13.4 15.4 13.25"
                  fill="#fbfedf" fill-rule="evenodd" stroke="none"/>
            <path d="M19.1 10.75 L19.2 10.9 19.15 11.45 19.1 11.5 19.05 12.05 19.05 12.65 19.05 12.75 19.05 13.25 19.0 13.55 18.8 13.7 18.0 13.95 17.9 14.05 17.65 14.25 17.6 14.25 17.4 14.35 17.1 14.2 16.95 14.05 16.9 13.85 16.95 13.65 17.0 13.5 Q17.0 13.1 17.25 13.05 L17.35 13.05 17.4 12.85 17.3 12.55 17.3 12.4 17.25 12.2 17.3 12.1 17.4 12.05 17.5 12.15 17.85 12.45 18.05 12.65 18.55 12.85 18.7 12.85 18.9 12.65 18.9 12.6 18.95 12.05 18.8 11.45 18.7 11.0 18.65 10.9 18.7 10.7 18.75 10.7 Q18.8 10.6 18.9 10.6 L19.05 10.7 19.1 10.75"
                  fill="#ffa64e" fill-rule="evenodd" stroke="none"/>
            <path d="M19.35 11.8 L19.3 12.15 19.15 13.45 18.95 13.9 18.55 14.1 18.2 14.5 17.85 14.85 Q17.5 14.9 16.5 14.15 L15.85 13.65 15.65 13.5 16.1 13.6 16.4 13.55 16.5 13.4 16.5 13.25 16.4 13.05 Q16.4 12.6 17.0 12.7 L16.95 12.45 16.25 11.3 15.55 10.25 15.7 10.25 17.05 11.35 17.2 11.45 17.9 12.1 18.5 12.45 18.6 12.35 18.6 12.15 18.5 11.8 18.3 11.45 Q18.2 11.25 18.45 10.75 L18.45 10.7 18.6 10.45 18.8 10.1 18.95 10.1 19.25 10.55 19.45 11.1 19.35 11.8 M19.2 10.9 L19.2 10.8 19.1 10.75 19.05 10.7 18.9 10.6 Q18.8 10.6 18.75 10.7 L18.7 10.7 18.65 10.9 18.7 11.0 18.8 11.45 18.95 12.05 18.9 12.6 18.9 12.65 18.7 12.85 18.55 12.85 18.05 12.65 17.85 12.45 17.5 12.15 17.4 12.05 17.3 12.1 17.25 12.2 17.3 12.4 17.3 12.55 17.4 12.85 17.35 13.05 17.25 13.05 Q17.0 13.1 17.0 13.5 L16.95 13.65 16.9 13.85 16.95 14.05 17.1 14.2 17.4 14.35 17.6 14.25 17.65 14.25 17.9 14.05 18.0 13.95 18.8 13.7 19.0 13.55 19.05 13.25 19.05 12.75 19.05 12.65 19.05 12.05 19.1 11.5 19.15 11.45 19.2 10.9 M15.4 13.25 L15.55 13.4 15.4 13.3 15.4 13.25"
                  fill="#fdfd83" fill-rule="evenodd" stroke="none"/>
            <path d="M19.85 21.25 L18.4 21.6 18.2 21.6 17.7 21.6 Q16.35 21.6 15.1 21.05 L14.95 21.0 14.85 20.95 13.55 19.9 13.55 19.8 Q13.55 19.25 13.8 18.95 14.0 18.65 14.6 18.45 L14.6 18.4 15.8 18.2 16.0 18.1 16.15 18.05 16.6 17.55 Q17.05 16.9 16.95 16.1 16.6 15.75 15.3 15.15 L14.95 15.05 15.4 13.65 15.9 14.15 16.45 14.75 17.0 15.1 17.8 15.2 18.2 15.1 18.55 14.95 18.85 14.9 18.9 14.9 18.95 14.8 19.15 14.4 19.35 14.2 19.95 13.8 19.95 13.75 20.35 13.95 20.4 14.2 20.45 15.0 20.4 15.7 20.35 16.25 20.95 16.55 Q21.6 16.95 21.6 17.8 21.6 19.3 20.6 20.5 L19.85 21.25 M19.95 14.45 L19.65 15.05 19.35 15.55 19.3 15.6 19.7 15.85 19.95 15.95 20.0 16.0 20.25 16.05 20.35 15.45 20.3 14.7 20.1 14.0 19.95 14.45 M20.35 16.25 L20.0 16.0 20.35 16.25 M20.9 17.5 L20.95 17.2 20.85 16.95 20.6 16.85 20.4 16.85 20.0 16.8 19.5 16.85 19.1 16.95 19.0 17.0 18.75 17.1 18.7 17.15 18.6 17.2 18.55 17.25 18.5 17.35 Q18.35 17.45 18.5 18.0 L19.15 18.7 20.05 19.0 20.05 19.8 19.95 20.25 19.95 20.4 20.05 20.4 20.3 18.8 Q20.45 18.75 20.55 18.65 L20.55 18.6 20.6 18.55 20.9 17.75 20.9 17.7 20.9 17.5 M18.4 21.2 L19.2 20.55 19.9 20.4 19.95 20.4 19.9 20.4 19.2 20.55 18.4 21.2"
                  fill="#fff3db" fill-rule="evenodd" stroke="none"/>
            <path d="M14.6 18.4 L14.55 18.4 14.45 18.35 13.55 18.05 13.2 17.8 Q12.5 17.3 12.3 16.55 12.05 15.7 12.4 15.0 L13.0 14.3 14.25 14.7 13.8 15.2 13.65 15.45 Q13.5 15.85 13.5 16.35 13.5 17.1 14.0 17.55 L14.35 17.9 15.8 18.2 14.6 18.4 M19.7 15.85 L19.85 15.6 19.95 15.1 19.95 14.45 20.1 14.0 20.3 14.7 20.35 15.45 20.25 16.05 20.0 16.0 19.95 15.95 19.7 15.85 M14.7 16.1 L14.7 16.2 14.65 16.4 14.65 16.45 14.5 16.55 14.4 16.55 14.2 16.5 14.15 16.45 14.1 16.3 14.15 15.95 14.35 15.85 14.55 15.9 14.7 16.0 14.7 16.1"
                  fill="#ffffff" fill-rule="evenodd" stroke="none"/>
            <path d="M13.8 18.4 L12.05 18.45 11.9 18.45 11.8 18.4 Q11.8 18.15 11.95 17.9 L11.5 17.45 11.4 17.15 11.35 16.85 11.5 16.5 11.75 16.1 11.45 15.45 11.25 14.25 11.3 13.7 Q11.4 12.4 12.15 11.55 L12.4 11.25 13.0 10.8 13.2 10.65 13.55 10.1 13.4 9.6 13.2 8.85 13.4 8.25 13.55 8.0 13.8 8.25 14.0 8.55 14.0 8.6 13.55 8.4 13.35 8.4 13.65 8.8 13.9 9.15 13.85 9.25 13.85 9.4 14.1 9.85 14.7 10.1 Q15.15 10.3 15.4 10.6 L15.7 11.6 15.6 11.9 15.4 11.9 15.4 12.1 15.4 12.3 15.45 12.65 15.7 13.0 15.1 12.5 14.4 11.9 14.1 11.45 13.95 11.05 13.8 10.75 13.4 10.65 13.3 10.9 13.65 11.7 14.05 12.35 14.45 12.9 15.0 13.45 15.2 13.55 14.7 14.45 14.5 14.85 14.4 14.8 14.25 14.7 13.0 14.3 12.4 15.0 Q12.05 15.7 12.3 16.55 12.5 17.3 13.2 17.8 L13.55 18.05 13.8 18.4 M19.95 13.75 L20.15 13.25 20.35 13.95 19.95 13.75 M17.65 10.7 L17.5 10.65 17.5 10.8 17.4 10.9 16.45 10.45 15.8 9.85 14.8 9.6 14.15 9.1 14.3 9.1 14.4 9.25 15.4 8.9 16.35 8.4 16.45 8.75 16.55 9.05 16.7 9.55 16.8 9.6 16.7 9.65 16.55 10.05 16.55 10.3 16.85 10.3 17.05 10.3 17.45 10.25 17.9 10.2 17.85 10.35 17.65 10.7 M14.2 8.75 L14.1 8.7 14.15 8.7 14.2 8.75 M11.45 22.75 Q11.8 21.65 12.35 21.3 L12.9 21.4 13.7 21.7 14.25 22.0 14.1 22.2 13.95 22.35 14.2 22.55 14.55 22.8 14.55 22.9 14.45 23.15 14.35 23.45 13.65 23.35 13.7 23.1 13.8 22.65 13.8 22.6 13.7 22.45 13.65 22.35 13.4 22.0 Q13.05 22.0 12.8 22.55 L12.6 23.15 11.7 22.85 11.5 22.75 11.45 22.75"
                  fill="#eb9655" fill-rule="evenodd" stroke="none"/>
            <path d="M19.95 14.45 L19.95 15.1 19.85 15.6 19.7 15.85 19.3 15.6 19.35 15.55 19.65 15.05 19.95 14.45 M14.5 14.85 L14.95 15.05 15.3 15.15 Q16.6 15.75 16.95 16.1 17.05 16.9 16.6 17.55 L16.15 18.05 15.8 18.1 Q14.9 18.1 14.35 17.45 L14.0 17.1 13.85 16.55 13.85 16.4 13.85 16.35 13.95 15.6 14.0 15.45 14.4 14.8 14.5 14.85 M14.7 16.1 L14.7 16.0 14.55 15.9 14.35 15.85 14.15 15.95 14.1 16.3 14.15 16.45 14.2 16.5 14.4 16.55 14.5 16.55 14.65 16.45 14.65 16.4 14.7 16.2 14.7 16.1"
                  fill="#513225" fill-rule="evenodd" stroke="none"/>
            <path d="M19.5 16.85 L20.0 16.8 20.4 16.85 20.6 16.85 20.85 16.95 20.95 17.2 20.9 17.5 20.7 17.8 20.05 18.0 19.55 17.8 19.35 17.35 Q19.25 17.05 19.4 16.95 L19.5 16.85 M20.55 17.2 L20.5 17.15 20.15 17.05 19.95 17.15 19.85 17.35 Q19.85 17.6 20.25 17.6 L20.45 17.6 20.6 17.45 20.6 17.25 20.55 17.2"
                  fill="#805340" fill-rule="evenodd" stroke="none"/>
            <path d="M20.55 17.2 L20.6 17.25 20.6 17.45 20.45 17.6 20.25 17.6 Q19.85 17.6 19.85 17.35 L19.95 17.15 20.15 17.05 20.5 17.15 20.55 17.2"
                  fill="#db977b" fill-rule="evenodd" stroke="none"/>
            <path d="M20.55 18.65 Q20.45 18.75 20.3 18.8 L20.2 18.8 19.65 18.55 19.25 18.35 Q18.5 17.8 18.5 17.45 L18.5 17.35 18.55 17.25 18.6 17.2 18.7 17.15 18.75 17.1 18.7 17.2 Q18.7 17.55 19.35 18.15 20.05 18.7 20.3 18.65 L20.55 18.65"
                  fill="#955e29" fill-rule="evenodd" stroke="none"/>
            <path d="M15.2 13.55 L15.4 13.65 14.95 15.05 14.5 14.85 14.7 14.45 15.2 13.55 M20.3 18.8 L20.05 20.4 19.95 20.4 19.95 20.25 20.05 19.8 20.05 19.0 19.15 18.7 18.5 18.0 Q18.35 17.45 18.5 17.35 L18.5 17.45 Q18.5 17.8 19.25 18.35 L19.65 18.55 20.2 18.8 20.3 18.8"
                  fill="#f7dfaf" fill-rule="evenodd" stroke="none"/>
            <path d="M14.5 21.6 L14.6 21.65 16.9 22.05 16.85 22.55 Q16.85 23.15 17.0 22.75 L17.35 23.15 17.4 23.2 17.25 23.15 17.05 23.1 16.5 22.95 16.1 22.35 15.95 22.65 15.8 23.4 15.5 23.45 15.5 22.65 Q15.35 22.45 14.5 23.45 L14.45 23.5 14.35 23.5 14.4 23.45 14.4 23.4 14.45 23.15 14.55 22.9 14.55 22.8 14.2 22.55 13.95 22.35 14.1 22.2 14.25 22.0 14.5 21.6 M17.25 22.05 L18.4 21.95 18.5 22.05 18.8 22.55 18.45 22.55 18.15 22.55 18.05 22.5 17.85 22.9 17.8 23.0 17.45 23.1 17.5 22.9 18.0 22.5 17.7 22.5 17.4 22.25 17.25 22.05 M18.0 22.5 L18.05 22.5 18.0 22.5"
                  fill="#332926" fill-rule="evenodd" stroke="none"/>
            <path d="M13.35 7.95 L13.0 8.3 12.95 8.4 12.15 9.4 11.95 9.65 12.15 9.85 13.0 10.05 12.15 10.7 Q11.1 11.55 10.45 12.7 10.3 13.1 10.3 13.45 L10.25 13.85 10.15 15.55 9.55 16.5 10.1 16.7 10.0 17.15 9.85 17.9 11.0 17.4 10.7 18.75 10.6 19.1 11.85 19.25 12.4 19.05 12.6 18.9 12.95 18.7 13.25 18.55 13.8 18.4 13.55 18.05 14.45 18.35 14.55 18.4 14.6 18.4 14.6 18.45 Q14.0 18.65 13.8 18.95 13.55 19.25 13.55 19.8 L13.55 19.9 14.85 20.95 14.95 21.0 15.1 21.05 Q16.35 21.6 17.7 21.6 L18.2 21.6 18.4 21.6 19.85 21.25 18.4 21.95 17.25 22.05 17.15 22.05 16.9 22.05 14.6 21.65 14.5 21.6 Q13.7 21.35 12.95 20.9 L11.8 20.1 11.45 19.8 10.9 19.95 10.85 19.95 10.65 20.0 9.75 20.25 9.55 19.6 9.45 18.85 8.95 18.6 8.55 18.2 9.05 17.3 9.15 17.15 9.35 16.95 9.35 16.9 9.15 16.05 9.05 15.85 9.3 15.75 9.05 15.85 9.15 16.05 9.35 16.9 9.35 16.95 9.15 17.15 9.05 17.3 8.55 18.2 8.95 18.6 9.45 18.85 9.55 19.6 9.75 20.25 10.65 20.0 10.85 19.95 10.9 19.95 11.45 19.8 11.8 20.1 12.95 20.9 Q13.7 21.35 14.5 21.6 L14.25 22.0 13.7 21.7 12.9 21.4 12.35 21.3 Q11.8 21.65 11.45 22.75 L10.45 22.25 10.3 22.05 10.15 21.95 9.95 21.8 9.85 21.75 9.0 21.05 8.7 20.75 8.6 20.6 7.65 19.45 7.65 19.4 8.3 18.65 8.6 17.45 Q8.6 16.45 7.85 15.75 7.35 15.4 6.75 15.25 L6.55 15.2 6.55 14.15 6.6 14.1 6.8 14.0 7.3 13.6 Q7.55 13.45 7.9 13.4 L9.15 15.1 9.4 15.4 9.45 15.4 9.5 15.2 10.0 13.45 10.05 13.25 10.45 12.25 11.5 10.05 11.05 10.0 10.8 10.0 10.55 10.0 10.8 9.75 11.55 9.05 12.15 8.6 12.9 8.15 13.0 8.1 13.35 7.95 M9.3 15.75 L9.4 15.6 9.5 15.2 9.4 15.6 9.3 15.75 9.15 15.1 9.3 15.75 M6.8 17.3 L7.15 17.5 Q7.55 17.95 7.55 18.4 L7.45 19.1 7.4 18.9 6.8 17.3 M18.45 22.55 L18.45 22.75 18.15 22.55 18.45 22.55 M17.45 23.1 L17.4 23.15 17.4 22.85 17.4 22.45 17.7 22.5 18.0 22.5 17.5 22.9 17.45 23.1 M17.25 23.15 L16.25 23.35 16.5 22.95 17.05 23.1 17.25 23.15"
                  fill="#e96130" fill-rule="evenodd" stroke="none"/>
            <path d="M13.8 18.4 L13.25 18.55 12.95 18.7 12.6 18.9 12.4 19.05 11.85 19.25 10.6 19.1 10.7 18.75 11.0 17.4 9.85 17.9 10.0 17.15 10.1 16.7 9.55 16.5 10.15 15.55 10.25 13.85 10.3 13.45 Q10.3 13.1 10.45 12.7 11.1 11.55 12.15 10.7 L13.0 10.05 12.15 9.85 11.95 9.65 12.15 9.4 12.95 8.4 13.0 8.3 13.35 7.95 13.45 7.9 13.55 8.0 13.4 8.25 13.2 8.85 13.4 9.6 13.55 10.1 13.2 10.65 13.0 10.8 12.4 11.25 12.15 11.55 Q11.4 12.4 11.3 13.7 L11.25 14.25 11.45 15.45 11.75 16.1 11.5 16.5 11.35 16.85 11.4 17.15 11.5 17.45 11.95 17.9 Q11.8 18.15 11.8 18.4 L11.9 18.45 12.05 18.45 13.8 18.4"
                  fill="#e97730" fill-rule="evenodd" stroke="none"/>
            <path d="M10.05 13.25 L10.0 13.45 9.5 15.2 9.45 15.4 9.4 15.4 9.15 15.1 7.9 13.4 7.25 12.5 7.15 12.25 7.4 11.7 7.8 12.15 8.55 12.85 8.85 13.0 9.15 13.3 9.45 13.6 9.55 13.35 9.6 13.25 9.95 13.25 10.05 13.25"
                  fill="#31241e" fill-rule="evenodd" stroke="none"/>
            <path d="M8.45 12.5 L8.4 12.45 8.2 11.8 Q8.2 11.4 8.65 11.25 L9.6 11.15 9.75 11.2 10.3 11.2 10.05 11.95 9.8 11.8 9.5 11.75 9.3 11.7 Q8.45 11.7 8.45 12.25 L8.45 12.5"
                  fill="#8c3d32" fill-rule="evenodd" stroke="none"/>
            <path d="M8.45 12.5 L8.45 12.25 Q8.45 11.7 9.3 11.7 L9.5 11.75 9.8 11.8 10.05 11.95 10.05 12.0 9.6 13.25 9.15 13.1 8.85 13.0 8.45 12.5"
                  fill="#cd6759" fill-rule="evenodd" stroke="none"/>
            <path d="M8.85 13.0 L9.15 13.1 9.6 13.25 9.55 13.35 9.45 13.6 9.15 13.3 8.85 13.0" fill="#a1483c"
                  fill-rule="evenodd" stroke="none"/>
            <path d="M17.9 10.05 L17.9 10.2 17.45 10.25 17.05 10.3 16.85 10.3 16.55 10.3 16.55 10.05 16.7 9.65 16.8 9.6 16.8 9.65 17.25 9.9 17.4 9.95 17.7 10.0 17.9 10.05 M14.3 9.1 L14.4 9.1 14.2 8.75 14.15 8.7 14.9 8.5 16.3 8.3 16.35 8.3 16.35 8.4 15.4 8.9 14.4 9.25 14.3 9.1 M13.65 23.35 L12.6 23.15 12.8 22.55 Q13.05 22.0 13.4 22.0 L13.65 22.35 13.7 22.45 13.8 22.6 13.8 22.65 13.7 23.1 13.65 23.35"
                  fill="#f3c785" fill-rule="evenodd" stroke="none"/>
            <path d="M17.9 10.4 L17.9 10.45 17.65 10.7 17.85 10.35 17.9 10.4" fill="#d07239" fill-rule="evenodd"
                  stroke="none"/>
            <path d="M14.25 14.7 L14.4 14.8 14.0 15.45 13.95 15.6 13.85 16.35 13.85 16.4 13.85 16.55 14.0 17.1 14.35 17.45 Q14.9 18.1 15.8 18.1 L16.15 18.05 16.0 18.1 15.8 18.2 14.35 17.9 14.0 17.55 Q13.5 17.1 13.5 16.35 13.5 15.85 13.65 15.45 L13.8 15.2 14.25 14.7"
                  fill="#754b3a" fill-rule="evenodd" stroke="none"/>
            <path d="M13.55 8.0 L13.45 7.9 13.35 7.95 13.0 8.1 12.9 8.15 12.15 8.6 11.55 9.05 10.8 9.75 10.55 10.0 8.5 10.1 M9.3 15.75 L9.05 15.85 9.15 16.05 9.35 16.9 9.35 16.95 9.15 17.15 9.05 17.3 8.55 18.2 8.95 18.6 9.45 18.85 9.55 19.6 9.75 20.25 10.65 20.0 10.85 19.95 10.9 19.95 11.45 19.8 11.8 20.1 12.95 20.9 Q13.7 21.35 14.5 21.6 L14.6 21.65 16.9 22.05 17.15 22.05 17.25 22.05 18.4 21.95 19.85 21.25 20.6 20.5 Q21.6 19.3 21.6 17.8 21.6 16.95 20.95 16.55 L20.35 16.25 20.4 15.7 20.45 15.0 20.4 14.2 20.35 13.95 20.15 13.25 M14.0 8.6 L14.0 8.55 13.8 8.25 13.55 8.0 M14.15 8.7 L14.9 8.5 16.3 8.3 16.35 8.3 16.35 8.4 16.45 8.75 16.55 9.05 16.7 9.55 16.8 9.6 16.8 9.65 17.25 9.9 17.4 9.6 Q17.9 8.75 18.1 8.75 L18.3 8.9 18.3 8.95 M14.1 8.7 L14.15 8.7 M7.15 12.25 L7.25 12.5 7.9 13.4 9.15 15.1 9.3 15.75 M6.8 14.0 L6.6 14.1 M6.8 14.0 L7.3 13.6 Q7.55 13.45 7.9 13.4 M19.65 11.25 L19.85 11.95 19.9 12.2 M18.45 22.55 L18.45 22.75 18.45 22.8 M14.45 23.15 L14.35 23.45"
                  fill="none" stroke="#2a1e18" stroke-linecap="round" stroke-linejoin="round" stroke-width="0.2"/>
            <path d="M10.55 10.0 L10.8 10.0 11.05 10.0 11.5 10.05 M9.15 15.1 L9.4 15.4" fill="none" stroke="#31241e"
                  stroke-linecap="round" stroke-linejoin="round" stroke-width="0.2"/>
            <path d="M9.5 15.2 L9.4 15.6 9.3 15.75 M14.6 18.4 L14.55 18.4 14.45 18.35 13.55 18.05 13.2 17.8 Q12.5 17.3 12.3 16.55 12.05 15.7 12.4 15.0 L13.0 14.3 14.25 14.7 14.4 14.8 14.5 14.85 14.95 15.05 15.3 15.15 Q16.6 15.75 16.95 16.1 17.05 16.9 16.6 17.55 L16.15 18.05 16.0 18.1 15.8 18.2 14.6 18.4 M17.9 10.2 L17.85 10.35 17.9 10.4 M17.9 10.05 L17.7 10.0 17.4 9.95 17.25 9.9 M17.85 10.35 L17.65 10.7 M19.95 14.45 L19.65 15.05 19.35 15.55 19.3 15.6 19.7 15.85 19.95 15.95 20.0 16.0 20.25 16.05 20.35 15.45 20.3 14.7 20.1 14.0 19.95 14.45 M20.0 16.0 L20.35 16.25 M20.9 17.5 L20.95 17.2 20.85 16.95 20.6 16.85 20.4 16.85 20.0 16.8 19.5 16.85 19.1 16.95 19.0 17.0 18.75 17.1 18.7 17.15 18.6 17.2 18.55 17.25 18.5 17.35 18.5 17.45 Q18.5 17.8 19.25 18.35 L19.65 18.55 20.2 18.8 20.3 18.8 20.05 20.4 19.95 20.4 19.9 20.4 19.2 20.55 18.4 21.2 M20.9 17.5 L20.9 17.7 20.9 17.75 20.6 18.55 20.55 18.6 20.55 18.65 Q20.45 18.75 20.3 18.8"
                  fill="none" stroke="#512801" stroke-linecap="round" stroke-linejoin="round" stroke-width="0.2"/>
            <path d="M14.25 22.0 L14.5 21.6 M18.4 21.95 L18.5 22.05 18.8 22.55 18.45 22.55 18.15 22.55 18.05 22.5 18.0 22.5 17.7 22.5 17.4 22.45 17.4 22.85 17.4 23.15 M16.25 23.35 L16.2 23.35 M14.4 23.45 L14.4 23.4 14.45 23.15 14.55 22.9 14.55 22.8 14.2 22.55 13.95 22.35 14.1 22.2 14.25 22.0 M18.45 22.75 L18.15 22.55 M17.45 23.1 L17.5 22.9 18.0 22.5 M17.25 23.15 L17.05 23.1 16.5 22.95 16.25 23.35"
                  fill="none" stroke="#332926" stroke-linecap="round" stroke-linejoin="round" stroke-width="0.2"/>
            <path d="M6.6 15.35 Q6.6 12.15 8.95 9.75 L9.05 9.65 Q11.5 7.3 15.1 7.3 L15.8 7.35 Q9.1 12.6 10.1 21.95 L9.05 21.1 8.9 20.95 Q6.6 18.65 6.6 15.35"
                  fill="#ffffff" fill-opacity="0.2" fill-rule="evenodd" stroke="none"/>
            <path d="M11.4 9.4 Q11.8 9.45 11.65 10.15 L10.55 11.85 9.35 13.25 Q8.8 13.15 8.7 12.8 L8.7 12.45 Q9.0 10.9 10.45 9.75 11.05 9.25 11.4 9.4 M9.7 14.85 L9.4 15.35 8.7 15.6 Q8.15 15.55 8.05 15.1 L8.1 14.7 Q8.2 13.9 9.0 14.0 9.85 14.1 9.7 14.85"
                  fill="#ffffff" fill-rule="evenodd" stroke="none"/>
        </g>
        <linearGradient gradientTransform="matrix(0.0049, 0.0, 0.0, 0.0065, 25.65, 9.55)" gradientUnits="userSpaceOnUse"
                        id="gradient0" spreadMethod="pad" x1="-819.2" x2="819.2">
            <stop offset="0.0" stop-color="#8d010c"/>
            <stop offset="1.0" stop-color="#f2b03f"/>
        </linearGradient>
        <linearGradient gradientTransform="matrix(0.0077, 0.0077, -0.0083, 0.0083, 15.05, 15.4)"
                        gradientUnits="userSpaceOnUse" id="gradient1" spreadMethod="pad" x1="-819.2" x2="819.2">
            <stop offset="0.0" stop-color="#ffec2e"/>
            <stop offset="1.0" stop-color="#e57d0b"/>
        </linearGradient>
        <linearGradient gradientTransform="matrix(0.0068, 0.0, 0.0, 0.005, 20.35, 25.9)" gradientUnits="userSpaceOnUse"
                        id="gradient2" spreadMethod="pad" x1="-819.2" x2="819.2">
            <stop offset="0.0" stop-color="#8d010c"/>
            <stop offset="1.0" stop-color="#f2b03f"/>
        </linearGradient>
        <linearGradient gradientTransform="matrix(0.0104, 0.0, 0.0, 0.0099, 15.0, 15.35)" gradientUnits="userSpaceOnUse"
                        id="gradient3" spreadMethod="pad" x1="-819.2" x2="819.2">
            <stop offset="0.0" stop-color="#002031"/>
            <stop offset="1.0" stop-color="#00485a"/>
        </linearGradient>
    </defs>
</svg>
