<?xml version="1.0" encoding="UTF-8" standalone="no"?>
<svg xmlns:ffdec="https://www.free-decompiler.com/flash" xmlns:xlink="http://www.w3.org/1999/xlink"
     ffdec:objectType="frame" height="60.0px" width="60.0px" xmlns="http://www.w3.org/2000/svg">
    <g transform="matrix(1.0, 0.0, 0.0, 1.0, 0.0, 0.0)">
        <use ffdec:characterId="4" ffdec:characterName="item" height="60.0"
             transform="matrix(1.0, 0.0, 0.0, 1.0, 0.0, 0.0)" width="60.0" xlink:href="#sprite0"/>
    </g>
    <defs>
        <g id="sprite0" transform="matrix(1.0, 0.0, 0.0, 1.0, 0.0, 0.0)">
            <use ffdec:characterId="1" height="60.0" transform="matrix(1.0, 0.0, 0.0, 1.0, 0.0, 0.0)" width="60.0"
                 xlink:href="#shape0"/>
            <use ffdec:characterId="3" height="54.0" transform="matrix(1.0, 0.0, 0.0, 1.0, 9.5, 3.45)" width="41.0"
                 xlink:href="#sprite1"/>
        </g>
        <g id="shape0" transform="matrix(1.0, 0.0, 0.0, 1.0, 0.0, 0.0)">
            <path d="M0.0 0.0 L60.0 0.0 60.0 60.0 0.0 60.0 0.0 0.0" fill="#33cc66" fill-opacity="0.0"
                  fill-rule="evenodd" stroke="none"/>
        </g>
        <g id="sprite1" transform="matrix(1.0, 0.0, 0.0, 1.0, 2.0, 2.0)">
            <use ffdec:characterId="2" height="54.0" transform="matrix(1.0, 0.0, 0.0, 1.0, -2.0, -2.0)" width="41.0"
                 xlink:href="#shape1"/>
        </g>
        <g id="shape1" transform="matrix(1.0, 0.0, 0.0, 1.0, 2.0, 2.0)">
            <path d="M33.0 6.15 L33.3 6.4 33.65 6.75 33.7 6.75 33.75 6.8 34.4 7.45 34.8 7.9 34.95 8.05 35.9 9.2 Q36.85 10.5 37.0 11.5 L36.95 11.65 36.8 12.45 36.55 12.7 34.0 16.75 32.5 16.5 32.05 16.4 31.45 16.3 30.65 16.15 30.15 16.05 29.0 15.8 28.75 15.7 26.05 14.8 25.2 16.3 29.6 19.35 Q32.45 21.6 32.0 22.6 L31.55 23.05 24.25 30.65 23.85 31.1 23.8 31.15 23.7 31.25 23.65 31.35 23.5 31.45 23.35 31.55 8.45 47.05 Q6.65 48.8 5.4 49.4 4.25 50.05 3.4 50.0 L2.1 49.75 1.8 49.55 1.1 49.1 0.5 48.35 Q0.05 47.65 0.0 46.3 -0.05 44.95 0.5 42.5 L9.85 10.6 10.05 10.0 Q10.7 9.1 14.05 10.45 L14.1 10.45 Q15.45 11.0 17.65 12.1 18.35 12.4 19.1 12.8 L19.95 11.3 18.65 10.25 17.8 9.45 16.9 8.4 16.55 8.05 15.95 7.4 15.8 7.25 15.2 6.6 14.35 5.4 16.55 1.35 16.55 1.25 16.65 0.9 16.7 0.9 17.2 0.3 17.4 0.2 18.5 0.0 21.35 0.25 21.55 0.3 23.3 0.75 23.75 0.9 Q24.9 1.3 26.2 2.05 L26.9 2.35 27.45 2.65 27.6 2.75 28.55 3.3 28.7 3.4 29.2 3.65 29.25 3.7 29.75 3.95 30.1 4.2 31.05 4.85 31.45 5.1 33.0 6.15 M24.25 30.65 L24.05 30.8 23.85 31.1 23.85 31.05 23.65 31.35 23.35 31.55 M23.7 31.25 L23.85 31.1 M24.05 30.8 L23.85 31.05"
                  fill="none" stroke="#3797bf" stroke-linecap="round" stroke-linejoin="round" stroke-width="4.0"/>
            <path d="M33.65 6.75 L33.7 6.75 33.75 6.8 34.4 7.45 34.8 7.9 34.1 8.0 Q33.15 8.3 32.4 9.05 31.2 10.25 31.2 11.75 L31.4 12.75 31.65 13.45 31.75 13.65 30.9 13.45 30.15 13.2 29.55 13.0 29.5 12.8 29.5 12.6 29.5 12.1 Q29.5 11.05 29.75 10.2 30.1 8.75 31.1 7.85 31.5 7.5 32.0 7.25 32.75 6.85 33.65 6.75 M16.55 1.6 L16.55 1.25 16.65 0.9 16.7 0.9 18.45 2.55 19.1 3.15 21.15 5.05 21.4 5.25 21.5 5.35 22.75 6.3 23.25 6.75 Q24.1 7.75 24.1 9.95 L24.05 10.75 23.3 10.3 22.8 10.0 Q22.95 8.7 21.65 7.35 L21.15 6.85 20.75 6.45 20.55 6.3 17.7 3.85 16.5 2.9 Q16.25 2.15 16.55 1.6 M18.5 0.0 L21.35 0.25 21.55 0.3 22.55 1.5 22.8 1.75 Q24.3 3.35 25.55 3.35 L25.8 3.35 27.45 2.65 27.6 2.75 28.55 3.3 28.7 3.4 29.2 3.65 28.3 4.05 28.05 4.2 25.4 5.05 24.3 4.8 23.85 4.6 22.4 3.65 22.0 3.3 19.45 0.9 18.5 0.0"
                  fill="#00ffff" fill-rule="evenodd" stroke="none"/>
            <path d="M36.55 12.7 L34.0 16.75 32.5 16.5 32.05 16.4 33.65 13.75 35.05 13.6 35.9 13.3 36.55 12.7 M30.65 16.15 L30.15 16.05 29.0 15.8 28.75 15.7 26.05 14.8 25.4 14.7 23.55 13.9 22.8 13.5 24.3 10.9 25.6 11.65 27.9 12.55 28.05 12.6 28.6 12.75 29.25 12.95 29.35 12.95 29.55 13.0 30.15 13.2 30.9 13.45 31.75 13.65 31.95 13.7 32.2 13.65 30.65 16.15"
                  fill="#607b7d" fill-rule="evenodd" stroke="none"/>
            <path d="M19.95 11.3 L18.65 10.25 20.05 7.7 20.6 8.2 20.7 8.3 22.8 10.0 23.3 10.3 24.05 10.75 24.3 10.9 22.8 13.5 22.7 13.45 22.0 13.0 20.4 11.8 19.95 11.3"
                  fill="#9aa9a8" fill-rule="evenodd" stroke="none"/>
            <path d="M32.05 16.4 L31.45 16.3 30.65 16.15 32.2 13.65 32.4 13.6 33.65 13.75 32.05 16.4 M2.1 49.75 L1.8 49.55 1.1 49.1 Q1.9 49.1 3.35 48.35 L6.3 46.15 9.05 43.6 9.1 43.55 9.1 43.6 9.05 43.6 9.1 43.6 9.45 43.8 Q8.55 45.25 6.35 47.3 4.1 49.3 2.1 49.75 M15.8 7.25 L15.2 6.6 14.35 5.4 16.55 1.6 Q16.25 2.15 16.5 2.9 L16.55 3.0 Q16.75 3.7 17.3 4.55 L15.8 7.25 M27.2 22.5 L27.95 22.7 28.6 22.85 25.85 26.15 25.85 26.2 24.55 26.0 27.2 22.5"
                  fill="#ffffff" fill-rule="evenodd" stroke="none"/>
            <path d="M18.65 10.25 L17.8 9.45 16.9 8.4 16.55 8.05 15.95 7.4 15.8 7.25 17.3 4.55 17.85 5.25 18.05 5.75 19.25 6.9 19.95 7.6 20.05 7.7 18.65 10.25"
                  fill="#d7dbda" fill-rule="evenodd" stroke="none"/>
            <path d="M26.05 14.8 L25.2 16.3 24.3 17.8 Q22.2 18.1 20.65 17.15 L20.6 17.1 Q19.0 16.15 18.25 14.3 L19.1 12.8 19.95 11.3 20.4 11.8 22.0 13.0 22.7 13.45 22.8 13.5 23.55 13.9 25.4 14.7 26.05 14.8 M20.1 12.3 L18.95 14.35 Q19.65 15.65 21.1 16.5 L22.3 14.2 20.65 12.75 20.1 12.3"
                  fill="#737373" fill-rule="evenodd" stroke="none"/>
            <path d="M20.45 12.6 Q20.05 12.7 19.2 14.25 L19.25 14.5 19.65 15.1 20.35 15.7 20.7 15.35 20.4 14.7 20.25 14.4 20.35 14.15 20.65 13.3 20.65 13.15 20.65 13.05 20.65 12.75 22.3 14.2 21.1 16.5 Q19.65 15.65 18.95 14.35 L20.1 12.3 20.45 12.6"
                  fill="#bbbbbb" fill-rule="evenodd" stroke="none"/>
            <path d="M20.65 12.75 L20.65 13.05 20.65 13.15 20.65 13.3 20.35 14.15 20.25 14.4 20.4 14.7 20.7 15.35 20.35 15.7 19.65 15.1 19.25 14.5 19.2 14.25 Q20.05 12.7 20.45 12.6 L20.65 12.75"
                  fill="#f7f7f7" fill-rule="evenodd" stroke="none"/>
            <path d="M23.65 31.35 L23.5 31.45 23.35 31.55 23.65 31.35 M23.85 31.1 L23.85 31.05 24.05 30.8 23.85 31.1"
                  fill="#006600" fill-rule="evenodd" stroke="none"/>
            <path d="M23.85 31.1 L23.8 31.15 23.7 31.25 23.65 31.35 23.85 31.05 23.65 31.35 23.35 31.55 21.1 32.2 14.0 32.85 6.95 32.2 Q4.0 31.6 4.0 30.75 4.4 30.0 6.1 29.5 L6.1 29.75 6.35 30.4 Q6.8 31.1 7.6 30.85 L8.25 30.15 8.4 29.1 8.4 29.0 14.0 28.65 21.1 29.25 Q24.0 29.9 24.05 30.8 L23.85 31.05 23.85 31.1 23.7 31.25 23.85 31.1"
                  fill="#78fe78" fill-rule="evenodd" stroke="none"/>
            <path d="M29.2 3.65 L29.25 3.7 29.75 3.95 30.1 4.2 31.05 4.85 31.45 5.1 33.0 6.15 33.3 6.4 33.65 6.75 Q32.75 6.85 32.0 7.25 31.5 7.5 31.1 7.85 30.1 8.75 29.75 10.2 29.5 11.05 29.5 12.1 L29.5 12.6 29.5 12.8 29.55 13.0 29.35 12.95 29.25 12.95 28.6 12.75 28.05 12.6 27.9 12.55 25.6 11.65 24.3 10.9 24.05 10.75 24.1 9.95 Q24.1 7.75 23.25 6.75 L22.75 6.3 21.5 5.35 21.4 5.25 21.15 5.05 19.1 3.15 18.45 2.55 16.7 0.9 17.2 0.3 17.4 0.2 18.5 0.0 19.45 0.9 22.0 3.3 22.4 3.65 23.85 4.6 24.3 4.8 25.4 5.05 28.05 4.2 28.3 4.05 29.2 3.65 M34.8 7.9 L34.95 8.05 35.9 9.2 Q36.85 10.5 37.0 11.5 L36.95 11.65 36.8 12.45 36.55 12.7 35.9 13.3 35.05 13.6 33.65 13.75 32.4 13.6 32.2 13.65 31.95 13.7 31.75 13.65 31.65 13.45 31.4 12.75 31.2 11.75 Q31.2 10.25 32.4 9.05 33.15 8.3 34.1 8.0 L34.8 7.9 M21.55 0.3 L23.3 0.75 23.75 0.9 Q24.9 1.3 26.2 2.05 L26.9 2.35 27.45 2.65 25.8 3.35 25.55 3.35 Q24.3 3.35 22.8 1.75 L22.55 1.5 21.55 0.3 M16.5 2.9 L17.7 3.85 20.55 6.3 20.75 6.45 21.15 6.85 21.65 7.35 Q22.95 8.7 22.8 10.0 L20.7 8.3 20.6 8.2 20.05 7.7 19.95 7.6 19.25 6.9 18.05 5.75 17.85 5.25 17.3 4.55 Q16.75 3.7 16.55 3.0 L16.5 2.9"
                  fill="url(#gradient0)" fill-rule="evenodd" stroke="none"/>
            <path d="M25.2 16.3 L29.6 19.35 Q32.45 21.6 32.0 22.6 L31.55 23.05 28.6 22.85 27.95 22.7 27.2 22.5 Q23.75 21.55 19.75 19.5 L19.3 19.35 18.9 19.05 15.3 16.5 11.95 13.5 Q10.1 11.65 9.85 10.6 L10.05 10.0 Q10.7 9.1 14.05 10.45 L14.1 10.45 Q15.45 11.0 17.65 12.1 18.35 12.4 19.1 12.8 L18.25 14.3 Q19.0 16.15 20.6 17.1 L20.65 17.15 Q22.2 18.1 24.3 17.8 L25.2 16.3"
                  fill="url(#gradient1)" fill-rule="evenodd" stroke="none"/>
            <path d="M31.55 23.05 L28.2 26.5 25.85 26.2 25.85 26.15 28.6 22.85 31.55 23.05 M8.6 15.25 L9.85 10.6 Q10.1 11.65 11.95 13.5 L15.3 16.5 18.9 19.05 19.3 19.35 19.75 19.5 Q23.75 21.55 27.2 22.5 L24.55 26.0 21.75 25.6 18.9 27.15 15.7 25.65 12.6 23.55 12.55 20.35 8.6 15.25"
                  fill="url(#gradient2)" fill-rule="evenodd" stroke="none"/>
            <path d="M23.35 31.55 L10.85 44.5 9.45 43.8 9.1 43.6 9.1 43.55 9.05 43.6 8.1 43.15 8.0 41.55 6.65 40.95 5.5 40.1 4.1 40.8 1.5 39.15 4.0 30.75 Q4.0 31.6 6.95 32.2 L14.0 32.85 21.1 32.2 23.35 31.55"
                  fill="url(#gradient3)" fill-rule="evenodd" stroke="none"/>
            <path d="M10.85 44.5 L8.45 47.05 Q6.65 48.8 5.4 49.4 4.25 50.05 3.4 50.0 L2.1 49.75 Q4.1 49.3 6.35 47.3 8.55 45.25 9.45 43.8 L10.85 44.5 M1.1 49.1 L0.5 48.35 Q0.05 47.65 0.0 46.3 -0.05 44.95 0.5 42.5 L1.5 39.15 4.1 40.8 5.5 40.1 6.65 40.95 8.0 41.55 8.1 43.15 9.05 43.6 6.3 46.15 3.35 48.35 Q1.9 49.1 1.1 49.1"
                  fill="url(#gradient4)" fill-rule="evenodd" stroke="none"/>
            <path d="M29.2 3.65 L29.25 3.7 29.75 3.95 30.1 4.2 31.05 4.85 31.45 5.1 33.0 6.15 33.3 6.4 33.65 6.75 33.7 6.75 33.75 6.8 34.4 7.45 34.8 7.9 34.95 8.05 35.9 9.2 Q36.85 10.5 37.0 11.5 L36.95 11.65 36.8 12.45 36.55 12.7 34.0 16.75 32.5 16.5 32.05 16.4 31.45 16.3 30.65 16.15 30.15 16.05 29.0 15.8 28.75 15.7 26.05 14.8 25.2 16.3 29.6 19.35 Q32.45 21.6 32.0 22.6 L31.55 23.05 28.2 26.5 24.25 30.65 23.85 31.1 23.8 31.15 23.7 31.25 23.65 31.35 23.5 31.45 23.35 31.55 10.85 44.5 8.45 47.05 Q6.65 48.8 5.4 49.4 4.25 50.05 3.4 50.0 L2.1 49.75 1.8 49.55 1.1 49.1 0.5 48.35 Q0.05 47.65 0.0 46.3 -0.05 44.95 0.5 42.5 L1.5 39.15 4.0 30.75 8.6 15.25 9.85 10.6 10.05 10.0 Q10.7 9.1 14.05 10.45 L14.1 10.45 Q15.45 11.0 17.65 12.1 18.35 12.4 19.1 12.8 L19.95 11.3 18.65 10.25 17.8 9.45 16.9 8.4 16.55 8.05 15.95 7.4 15.8 7.25 15.2 6.6 14.35 5.4 16.55 1.6 16.55 1.25 16.65 0.9 16.7 0.9 17.2 0.3 17.4 0.2 18.5 0.0 21.35 0.25 21.55 0.3 23.3 0.75 23.75 0.9 Q24.9 1.3 26.2 2.05 L26.9 2.35 27.45 2.65 27.6 2.75 28.55 3.3 28.7 3.4 29.2 3.65 M31.75 13.65 L31.95 13.7 32.2 13.65 32.4 13.6 33.65 13.75 35.05 13.6 35.9 13.3 36.55 12.7 M24.05 10.75 L24.3 10.9 25.6 11.65 27.9 12.55 28.05 12.6 28.6 12.75 29.25 12.95 29.35 12.95 29.55 13.0 30.15 13.2 30.9 13.45 31.75 13.65 M16.5 2.9 L16.55 3.0 Q16.75 3.7 17.3 4.55 L17.85 5.25 18.05 5.75 19.25 6.9 19.95 7.6 20.05 7.7 20.6 8.2 20.7 8.3 22.8 10.0 23.3 10.3 24.05 10.75 M26.05 14.8 L25.4 14.7 23.55 13.9 22.8 13.5 22.7 13.45 22.0 13.0 20.4 11.8 19.95 11.3 M19.1 12.8 L18.25 14.3 Q19.0 16.15 20.6 17.1 L20.65 17.15 Q22.2 18.1 24.3 17.8 L25.2 16.3 M27.2 22.5 L27.95 22.7 28.6 22.85 31.55 23.05 M16.55 1.6 Q16.25 2.15 16.5 2.9 M27.2 22.5 Q23.75 21.55 19.75 19.5 L19.3 19.35 18.9 19.05 15.3 16.5 11.95 13.5 Q10.1 11.65 9.85 10.6 M8.6 15.25 L12.55 20.35 12.6 23.55 15.7 25.65 18.9 27.15 21.75 25.6 24.55 26.0 25.85 26.2 28.2 26.5 M24.05 30.8 L24.25 30.65 M9.05 43.6 L8.1 43.15 8.0 41.55 6.65 40.95 5.5 40.1 4.1 40.8 1.5 39.15 M9.1 43.6 L9.45 43.8 10.85 44.5 M9.05 43.6 L9.1 43.6 M23.85 31.05 L23.65 31.35 23.35 31.55 M23.85 31.1 L23.85 31.05 24.05 30.8 23.85 31.1 23.7 31.25"
                  fill="none" stroke="#1a3866" stroke-linecap="round" stroke-linejoin="round" stroke-width="0.5"/>
            <path d="M12.55 20.35 L12.6 23.55 15.7 25.65 18.9 27.15 21.75 25.6 28.2 26.5 10.85 44.5 9.1 43.6 9.1 43.55 9.05 43.6 8.1 43.15 8.0 41.55 6.65 40.95 5.5 40.1 4.1 40.8 1.5 39.15 8.6 15.25 12.55 20.35"
                  fill="#006600" fill-opacity="0.2" fill-rule="evenodd" stroke="none"/>
            <path d="M10.9 22.75 L10.35 24.0 Q9.95 24.65 9.6 26.15 9.2 27.55 8.65 27.7 8.1 27.85 7.8 27.3 L7.6 26.65 Q7.3 25.15 8.95 22.15 10.55 19.05 11.05 21.75 11.2 22.3 10.9 22.75 M8.4 29.1 L8.25 30.15 7.6 30.85 Q6.8 31.1 6.35 30.4 L6.1 29.75 6.1 29.5 Q5.95 28.2 6.95 28.1 8.1 27.95 8.4 29.0 L8.4 29.1"
                  fill="#ffffff" fill-rule="evenodd" stroke="none"/>
        </g>
        <linearGradient gradientTransform="matrix(0.0018, -0.0031, 0.0123, 0.0071, 26.5, 7.0)"
                        gradientUnits="userSpaceOnUse" id="gradient0" spreadMethod="pad" x1="-819.2" x2="819.2">
            <stop offset="0.0" stop-color="#1a7388"/>
            <stop offset="1.0" stop-color="#0ff0d9"/>
        </linearGradient>
        <linearGradient gradientTransform="matrix(0.0011, -0.0019, 0.0134, 0.0077, 20.85, 16.6)"
                        gradientUnits="userSpaceOnUse" id="gradient1" spreadMethod="pad" x1="-819.2" x2="819.2">
            <stop offset="0.0" stop-color="#1a7388"/>
            <stop offset="1.0" stop-color="#0feed8"/>
        </linearGradient>
        <linearGradient gradientTransform="matrix(0.0106, 0.0061, -0.0031, 0.0054, 18.3, 21.25)"
                        gradientUnits="userSpaceOnUse" id="gradient2" spreadMethod="pad" x1="-819.2" x2="819.2">
            <stop offset="0.0" stop-color="#ffffff"/>
            <stop offset="1.0" stop-color="#607b7d"/>
        </linearGradient>
        <linearGradient gradientTransform="matrix(5.0E-4, 0.0052, -0.0136, 0.0013, 12.7, 38.4)"
                        gradientUnits="userSpaceOnUse" id="gradient3" spreadMethod="pad" x1="-819.2" x2="819.2">
            <stop offset="0.0" stop-color="#02db2d"/>
            <stop offset="1.0" stop-color="#01a020"/>
        </linearGradient>
        <linearGradient gradientTransform="matrix(0.0037, 0.0021, -0.0031, 0.0053, 4.0, 45.05)"
                        gradientUnits="userSpaceOnUse" id="gradient4" spreadMethod="pad" x1="-819.2" x2="819.2">
            <stop offset="0.0" stop-color="#ffffff"/>
            <stop offset="1.0" stop-color="#607b7d"/>
        </linearGradient>
    </defs>
</svg>
