<?xml version="1.0" encoding="UTF-8" standalone="no"?>
<svg xmlns:ffdec="https://www.free-decompiler.com/flash" xmlns:xlink="http://www.w3.org/1999/xlink"
     ffdec:objectType="frame" height="21.6px" width="45.0px" xmlns="http://www.w3.org/2000/svg">
    <g transform="matrix(1.0, 0.0, 0.0, 1.0, 0.0, 0.0)">
        <use ffdec:characterId="1" height="21.6" transform="matrix(1.0, 0.0, 0.0, 1.0, 0.0, 0.0)" width="45.0"
             xlink:href="#shape0"/>
    </g>
    <defs>
        <g id="shape0" transform="matrix(1.0, 0.0, 0.0, 1.0, 0.0, 0.0)">
            <path d="M40.3 0.2 L44.85 4.8 45.0 5.1 45.0 16.5 44.85 16.85 40.3 21.45 40.05 21.55 39.85 21.6 5.2 21.6 5.0 21.55 4.7 21.45 0.15 16.85 0.0 16.5 0.0 5.1 0.15 4.8 4.7 0.2 5.0 0.1 5.2 0.0 39.85 0.0 40.05 0.1 40.3 0.2 M43.85 16.35 L43.85 5.25 39.6 1.0 5.45 1.0 1.15 5.25 1.15 16.35 5.45 20.65 39.6 20.65 43.85 16.35"
                  fill="#00ffff" fill-rule="evenodd" stroke="none"/>
            <path d="M42.7 6.4 L39.2 6.4 39.2 15.25 42.7 15.25 42.7 6.4 M43.85 16.35 L39.6 20.65 5.45 20.65 1.15 16.35 1.15 5.25 5.45 1.0 39.6 1.0 43.85 5.25 43.85 16.35 M38.85 1.7 L38.85 5.55 42.8 5.55 38.85 1.7 M38.85 20.05 L42.8 16.2 38.85 16.2 38.85 20.05 M6.3 1.7 L2.35 5.55 6.3 5.55 6.3 1.7 M6.3 16.2 L2.35 16.2 6.3 20.05 6.3 16.2 M5.95 6.45 L2.3 6.45 2.3 15.15 5.95 15.15 5.95 6.45"
                  fill="#ffff66" fill-opacity="0.0" fill-rule="evenodd" stroke="none"/>
            <path d="M42.7 6.4 L42.7 15.25 39.2 15.25 39.2 6.4 42.7 6.4 M38.85 1.7 L42.8 5.55 38.85 5.55 38.85 1.7 M6.3 1.7 L6.3 5.55 2.35 5.55 6.3 1.7 M38.85 20.05 L38.85 16.2 42.8 16.2 38.85 20.05 M5.95 6.45 L5.95 15.15 2.3 15.15 2.3 6.45 5.95 6.45 M6.3 16.2 L6.3 20.05 2.35 16.2 6.3 16.2"
                  fill="#ffff66" fill-rule="evenodd" stroke="none"/>
            <path d="M32.35 8.5 L32.35 6.65 33.6 6.65 33.95 6.3 34.55 4.6 36.8 4.6 36.0 7.5 Q35.65 8.5 34.4 8.5 L32.35 8.5 M37.25 11.45 L34.1 11.45 34.1 15.4 34.55 15.7 36.95 15.7 36.95 17.55 33.2 17.55 Q31.85 17.55 31.85 16.4 L31.85 11.45 23.5 11.45 23.5 9.6 29.3 9.6 29.3 3.65 31.55 3.65 31.55 9.6 37.25 9.6 37.25 11.45 M28.45 6.65 L28.45 8.5 26.45 8.5 Q25.35 8.5 25.05 7.6 L24.05 4.6 26.35 4.6 26.9 6.35 27.25 6.65 28.45 6.65 M26.9 17.55 L23.75 17.55 23.75 15.65 25.55 15.65 26.1 15.2 26.6 12.4 28.85 12.4 28.15 16.4 Q27.95 17.55 26.9 17.55 M20.1 17.3 L14.55 17.3 14.55 3.95 21.65 3.95 21.65 15.9 Q21.65 17.3 20.1 17.3 M16.55 5.85 L16.55 9.35 19.55 9.35 19.55 5.85 16.55 5.85 M10.0 5.55 L10.0 9.05 11.3 9.05 11.75 8.75 11.75 5.55 10.0 5.55 M10.0 10.95 L10.0 14.9 11.5 14.9 11.75 14.45 11.75 11.25 Q11.75 10.95 11.1 10.95 L10.0 10.95 M13.75 11.15 L13.75 15.65 Q13.75 16.75 12.5 16.8 L10.0 16.8 10.0 17.7 7.9 17.7 7.9 3.65 13.75 3.65 13.75 9.05 Q13.75 9.7 12.8 10.0 13.75 10.4 13.75 11.15 M16.55 11.25 L16.55 15.4 19.05 15.4 Q19.55 15.4 19.55 15.0 L19.55 11.25 16.55 11.25"
                  fill="#ffff66" fill-rule="evenodd" stroke="none"/>
        </g>
    </defs>
</svg>
