<?xml version="1.0" encoding="UTF-8" standalone="no"?>
<svg xmlns:ffdec="https://www.free-decompiler.com/flash" xmlns:xlink="http://www.w3.org/1999/xlink"
     ffdec:objectType="frame" height="57.4px" width="56.3px" xmlns="http://www.w3.org/2000/svg">
    <g transform="matrix(1.0, 0.0, 0.0, 1.0, 2.35, 1.95)">
        <clipPath id="clipPath0" transform="matrix(1.0, 0.0, 0.0, 1.0, 0.0, 0.0)">
            <path d="M50.5 0.0 Q53.95 0.0 53.95 3.3 L53.95 50.15 Q53.95 53.4 50.5 53.4 L3.3 53.4 Q0.0 53.4 0.0 50.15 L0.0 3.3 Q0.0 0.0 3.3 0.0 L50.5 0.0"
                  fill="#000000" fill-rule="evenodd" stroke="none"/>
        </clipPath>
        <g clip-path="url(#clipPath0)">
            <use ffdec:characterId="2" height="57.4" transform="matrix(1.0, 0.0, 0.0, 1.0, -2.35, -1.95)" width="54.25"
                 xlink:href="#shape1"/>
        </g>
        <use ffdec:characterId="3" height="53.4" transform="matrix(1.0, 0.0, 0.0, 1.0, 0.0, 0.0)" width="53.95"
             xlink:href="#shape2"/>
    </g>
    <defs>
        <g id="shape1" transform="matrix(1.0, 0.0, 0.0, 1.0, 2.35, 1.95)">
            <path d="M48.25 31.35 L50.35 30.5 50.55 32.7 Q50.55 35.55 49.9 37.35 L49.3 38.55 49.1 38.9 48.35 39.6 46.8 40.05 Q45.5 40.05 44.75 38.7 46.2 39.0 47.15 38.15 L47.55 37.65 47.75 37.35 48.45 35.7 48.6 34.45 Q48.65 32.85 48.25 31.35 M46.65 32.8 Q46.85 32.5 47.25 32.5 47.95 32.5 47.95 33.45 L47.8 34.4 47.65 34.75 47.1 35.0 Q46.45 35.0 46.4 34.4 L46.4 33.6 46.4 33.45 Q46.45 33.05 46.65 32.8 M33.8 37.8 L33.4 38.4 Q32.0 40.45 29.5 40.45 26.8 40.45 25.0 38.9 L24.05 37.95 23.05 36.45 22.75 35.85 Q21.1 32.35 21.1 27.05 L21.35 24.55 25.3 26.4 Q24.65 27.75 24.65 30.95 24.65 32.5 25.05 34.1 L25.1 34.3 Q25.45 35.5 25.95 36.15 L26.05 36.3 26.6 37.15 26.9 37.5 27.25 37.9 28.7 38.75 30.35 38.95 Q31.8 38.95 33.3 38.1 L33.8 37.8 M25.5 29.6 L25.75 29.25 26.0 29.05 26.55 28.9 Q27.05 28.9 27.4 29.35 27.75 29.8 27.75 30.6 L27.55 31.85 26.95 32.45 26.45 32.5 25.7 32.0 Q25.3 31.5 25.3 30.85 L25.4 29.8 25.5 29.6"
                  fill="#ffffff" fill-rule="evenodd" stroke="none"/>
            <path d="M29.5 -1.45 L36.15 -1.45 Q33.5 -0.2 29.7 3.0 L24.4 7.25 23.5 6.45 22.15 5.3 26.0 1.6 29.5 -1.45 M9.5 -1.45 L12.55 1.85 16.2 6.75 17.7 8.8 18.25 9.5 Q22.8 14.9 25.45 14.9 27.35 14.9 28.8 13.95 L29.4 13.45 30.4 12.45 30.4 12.4 30.5 12.5 31.1 12.65 Q31.95 12.65 32.0 11.85 31.95 10.7 32.45 10.1 32.75 9.6 34.0 9.85 L34.45 11.65 34.95 13.35 Q34.95 14.75 32.5 14.75 L30.7 14.5 Q27.1 19.15 18.75 14.1 L15.5 9.25 15.35 9.0 13.3 6.45 15.35 9.0 Q14.95 9.1 14.75 9.35 14.45 9.65 14.45 9.95 14.45 10.45 14.95 11.0 L15.4 11.7 15.4 12.05 15.0 12.2 Q15.05 12.65 15.4 13.05 L15.7 13.85 Q15.7 15.2 13.9 16.0 L10.1 16.65 9.8 16.65 7.2 16.45 6.75 16.4 6.0 16.1 3.75 16.5 Q2.55 17.0 2.55 17.8 2.55 18.95 4.0 19.8 L7.35 21.25 Q12.15 23.2 12.15 26.1 L11.3 27.9 10.4 29.15 10.75 29.8 11.05 30.55 Q11.05 31.45 8.85 32.3 6.6 33.05 6.6 33.6 6.6 34.85 10.05 36.0 13.5 37.2 13.5 38.1 L12.55 39.1 Q11.6 39.75 11.6 40.4 11.6 40.75 12.75 41.7 L15.0 43.3 Q15.8 44.45 17.5 45.35 L17.7 45.45 15.8 45.85 15.2 45.6 Q9.05 43.0 8.95 41.2 8.9 40.4 9.0 40.2 9.05 40.0 9.8 39.55 10.55 39.05 10.5 38.6 L9.85 37.65 Q9.05 36.95 7.0 36.1 4.15 34.85 3.7 33.4 L3.6 32.85 Q3.6 31.45 6.35 30.2 7.8 29.5 8.5 28.5 9.05 27.75 9.05 26.75 9.05 25.7 8.5 25.05 L7.4 24.25 3.8 23.45 Q1.4 22.95 0.2 22.0 -1.35 20.6 -1.4 17.65 L-1.4 17.6 Q-1.4 15.35 -0.6 14.15 0.2 12.95 1.8 12.95 3.15 12.95 5.7 13.85 8.25 14.8 10.0 14.8 L10.6 14.8 11.8 13.3 Q11.3 12.8 10.0 12.25 7.45 11.05 7.4 8.7 7.35 6.35 11.15 6.35 L13.3 6.45 12.35 5.3 9.35 2.0 7.6 0.1 6.65 -0.85 6.05 -1.45 9.5 -1.45 M31.45 13.25 L30.5 12.5 31.45 13.25 M45.15 -1.45 Q45.95 0.2 45.95 2.55 45.95 3.75 44.15 10.6 L42.75 16.8 40.85 14.9 42.4 9.85 Q43.65 4.35 43.7 1.95 43.75 -0.3 42.9 -1.45 L45.15 -1.45 M36.3 49.55 L37.2 49.5 38.7 49.4 38.75 51.5 38.35 51.5 Q37.3 52.1 37.05 52.75 L37.05 52.85 36.85 52.05 36.3 49.55 M5.65 54.95 L5.9 54.7 7.3 53.35 10.55 49.9 Q13.45 46.75 15.8 45.85 L17.7 45.45 18.55 45.55 18.3 45.75 17.3 46.45 Q13.7 49.2 8.2 54.95 L5.65 54.95 M11.8 13.3 Q12.3 13.8 12.0 14.2 L11.5 14.55 10.6 14.8 11.5 14.55 12.0 14.2 Q12.3 13.8 11.8 13.3 M-1.85 23.9 L-0.5 24.05 Q1.35 24.4 2.45 25.25 3.5 26.05 3.5 26.85 3.5 27.85 1.7 28.5 -0.1 29.15 -0.1 29.55 L0.0 30.0 0.15 30.6 Q0.15 31.4 -0.75 31.7 L-1.85 31.95 -1.85 23.9 M2.5 46.8 L2.6 46.85 3.2 47.4 Q5.05 49.05 6.05 50.7 L5.65 51.55 4.85 52.0 Q4.5 52.0 3.8 51.45 L3.2 51.05 2.8 50.9 Q2.35 50.9 1.65 51.85 1.0 52.8 0.3 52.8 -0.85 52.8 -1.85 51.6 L-1.85 48.0 Q-0.8 49.05 0.35 49.05 L2.0 48.8 Q2.55 48.45 2.55 47.3 L2.5 46.8 M20.25 46.45 L21.9 46.4 23.35 48.35 20.75 47.65 20.7 46.85 20.25 46.45 M17.5 54.95 L17.5 54.9 17.8 54.35 18.3 54.95 17.5 54.95 M-1.85 54.55 L-0.7 54.95 -1.85 54.95 -1.85 54.55"
                  fill="#4190d2" fill-rule="evenodd" stroke="none"/>
            <path d="M9.5 -1.45 L11.9 -1.45 14.55 0.9 20.95 6.55 23.1 8.45 23.65 9.0 27.05 11.85 29.6 12.1 29.85 12.0 30.4 12.4 30.4 12.45 29.4 13.45 28.8 13.95 Q27.35 14.9 25.45 14.9 22.8 14.9 18.25 9.5 L17.7 8.8 16.2 6.75 12.55 1.85 9.5 -1.45 M15.35 9.0 L15.5 9.25 18.75 14.1 Q27.1 19.15 30.7 14.5 L32.5 14.75 Q34.95 14.75 34.95 13.35 L34.45 11.65 34.0 9.85 35.1 10.1 Q36.5 10.55 40.85 14.9 L42.75 16.8 44.15 10.6 Q45.95 3.75 45.95 2.55 45.95 0.2 45.15 -1.45 L46.4 -1.45 46.65 2.05 47.0 6.95 Q47.0 9.05 46.4 13.2 L45.8 18.2 Q45.8 19.15 46.05 19.75 46.4 20.6 47.15 20.6 47.7 20.6 48.35 19.3 L48.05 22.85 46.3 20.5 45.95 20.1 42.75 16.8 45.95 20.1 46.3 20.5 48.05 22.85 Q50.5 26.6 51.2 31.15 51.8 35.0 50.8 38.4 L49.9 37.35 Q50.55 35.55 50.55 32.7 L50.35 30.5 48.25 31.35 47.0 31.7 43.9 32.6 Q43.7 33.6 43.75 35.0 L43.75 35.4 42.25 36.4 35.35 31.75 35.4 31.15 32.45 29.8 30.8 28.7 30.55 28.95 27.85 27.65 25.3 26.4 21.35 24.55 21.1 27.05 Q21.1 32.35 22.75 35.85 L23.05 36.45 21.3 38.4 Q19.6 37.05 17.05 37.25 14.65 37.6 14.3 40.5 14.1 42.05 15.0 43.3 L12.75 41.7 Q11.6 40.75 11.6 40.4 11.6 39.75 12.55 39.1 L13.5 38.1 Q13.5 37.2 10.05 36.0 6.6 34.85 6.6 33.6 6.6 33.05 8.85 32.3 11.05 31.45 11.05 30.55 L10.75 29.8 10.4 29.15 11.3 27.9 12.15 26.1 Q12.15 23.2 7.35 21.25 L4.0 19.8 Q2.55 18.95 2.55 17.8 2.55 17.0 3.75 16.5 L6.0 16.1 6.75 16.4 7.2 16.45 9.8 16.65 10.1 16.65 13.9 16.0 Q15.7 15.2 15.7 13.85 L15.4 13.05 Q15.05 12.65 15.0 12.2 L15.4 12.05 15.4 11.7 14.95 11.0 Q14.45 10.45 14.45 9.95 14.45 9.65 14.75 9.35 14.95 9.1 15.35 9.0 M42.2 19.8 L40.7 18.8 40.5 18.75 40.2 18.55 38.2 18.3 Q36.55 18.3 35.9 18.8 35.35 19.25 35.35 20.25 35.35 21.95 38.05 23.05 40.15 23.85 41.9 23.85 L42.9 23.85 44.05 23.55 44.45 22.9 Q44.45 21.65 42.4 20.0 L42.2 19.8 M35.0 34.35 L41.45 38.95 44.05 37.0 44.5 38.05 41.2 40.6 34.6 35.95 35.0 34.35 M49.1 38.9 L50.2 40.15 49.65 41.25 49.15 40.6 49.2 40.4 49.0 40.45 48.35 39.6 49.1 38.9 M25.0 38.9 L22.95 40.35 22.4 39.5 24.05 37.95 25.0 38.9 M23.65 44.3 L25.8 48.8 24.6 48.6 23.0 45.65 23.65 44.3 M2.5 46.8 L2.55 47.3 Q2.55 48.45 2.0 48.8 L0.35 49.05 Q-0.8 49.05 -1.85 48.0 L-1.85 44.45 Q0.0 44.7 2.5 46.8 M18.55 45.55 Q19.45 45.75 20.25 46.45 L20.7 46.85 20.75 47.65 Q20.8 49.1 20.15 50.4 L19.85 50.95 19.35 51.65 19.15 51.95 18.7 52.75 19.15 51.95 20.15 52.95 22.15 54.95 20.75 54.95 19.75 53.9 18.7 52.75 17.8 54.35 17.5 54.9 17.5 54.95 8.2 54.95 Q13.7 49.2 17.3 46.45 L18.3 45.75 18.55 45.55 M25.5 29.6 L26.0 29.05 25.75 29.25 25.5 29.6 M37.05 52.85 L37.05 52.75 Q37.3 52.1 38.35 51.5 L38.75 51.5 39.05 54.95 37.5 54.95 37.05 52.85"
                  fill="#3a9fef" fill-rule="evenodd" stroke="none"/>
            <path d="M22.15 5.3 L23.5 6.45 24.4 7.25 29.85 12.0 29.6 12.1 27.05 11.85 23.65 9.0 23.1 8.45 20.95 6.55 14.55 0.9 11.9 -1.45 14.8 -1.45 17.05 0.65 18.45 1.9 22.15 5.3 M48.35 19.3 Q47.7 20.6 47.15 20.6 46.4 20.6 46.05 19.75 45.8 19.15 45.8 18.2 L46.4 13.2 Q47.0 9.05 47.0 6.95 L46.65 2.05 46.4 -1.45 48.05 -1.45 Q49.3 2.3 49.3 9.15 L48.35 19.3 M41.7 20.35 L40.95 20.05 39.9 19.9 Q38.75 19.9 38.35 20.6 38.5 21.05 39.6 21.6 40.8 22.2 42.0 22.35 L42.8 22.35 43.1 21.95 Q43.1 21.4 42.4 20.85 L42.05 20.55 41.7 20.35 M42.2 19.8 L42.4 20.0 Q44.45 21.65 44.45 22.9 L44.05 23.55 42.9 23.85 41.9 23.85 Q40.15 23.85 38.05 23.05 35.35 21.95 35.35 20.25 35.35 19.25 35.9 18.8 36.55 18.3 38.2 18.3 L40.2 18.55 40.5 18.75 40.7 18.8 42.2 19.8"
                  fill="#48b8fa" fill-rule="evenodd" stroke="none"/>
            <path d="M25.8 48.8 L25.9 48.8 31.8 49.55 36.3 49.55 36.85 52.05 33.1 52.0 30.1 51.7 26.75 51.35 24.75 50.95 24.65 50.95 Q23.35 50.65 20.15 52.95 L19.15 51.95 19.35 51.65 19.85 50.95 20.15 50.4 Q20.8 49.1 20.75 47.65 L23.35 48.35 24.6 48.6 25.8 48.8 M17.8 54.35 L18.7 52.75 19.75 53.9 19.3 54.95 18.3 54.95 17.8 54.35"
                  fill="#fae0b5" fill-rule="evenodd" stroke="none"/>
            <path d="M49.9 37.35 L50.8 38.4 50.2 40.15 49.1 38.9 49.3 38.55 49.9 37.35 M43.75 35.4 L44.05 37.0 41.45 38.95 35.0 34.35 35.35 31.75 42.25 36.4 43.75 35.4 M44.5 38.05 L44.55 38.2 44.75 38.7 Q45.5 40.05 46.8 40.05 L48.35 39.6 49.0 40.45 48.05 40.65 Q46.5 41.5 45.7 42.4 44.85 43.4 44.95 44.55 45.0 45.45 45.55 45.4 L47.55 43.2 Q48.75 41.7 49.15 40.6 L49.65 41.25 48.15 43.65 46.85 45.25 Q43.6 48.7 38.7 49.4 L37.2 49.5 36.3 49.55 31.8 49.55 25.9 48.8 25.8 48.8 23.65 44.3 Q23.85 43.4 23.7 42.2 L22.95 40.35 25.0 38.9 Q26.8 40.45 29.5 40.45 32.0 40.45 33.4 38.4 L33.8 37.8 34.6 35.95 41.2 40.6 44.5 38.05 M21.3 38.4 L23.05 36.45 24.05 37.95 22.4 39.5 21.3 38.4 M30.55 28.95 L30.8 28.7 32.45 29.8 30.55 28.95 M21.9 46.4 L22.55 46.05 23.0 45.65 24.6 48.6 23.35 48.35 21.9 46.4 M37.05 52.85 L37.5 54.95 22.15 54.95 20.15 52.95 Q23.35 50.65 24.65 50.95 L24.75 50.95 26.75 51.35 30.1 51.7 33.1 52.0 36.85 52.05 37.05 52.85 M20.75 54.95 L19.3 54.95 19.75 53.9 20.75 54.95"
                  fill="#fff7e3" fill-rule="evenodd" stroke="none"/>
            <path d="M41.7 20.35 L42.05 20.55 42.4 20.85 Q43.1 21.4 43.1 21.95 L42.8 22.35 42.0 22.35 Q40.8 22.2 39.6 21.6 38.5 21.05 38.35 20.6 38.75 19.9 39.9 19.9 L40.95 20.05 41.7 20.35"
                  fill="#cffdff" fill-rule="evenodd" stroke="none"/>
            <path d="M43.75 35.4 L43.75 35.0 Q43.7 33.6 43.9 32.6 L47.0 31.7 48.25 31.35 Q48.65 32.85 48.6 34.45 L48.45 35.7 47.75 37.35 47.55 37.65 47.15 38.15 Q46.2 39.0 44.75 38.7 L44.55 38.2 44.5 38.05 44.05 37.0 43.75 35.4 M35.35 31.75 L35.0 34.35 34.6 35.95 33.8 37.8 33.3 38.1 Q31.8 38.95 30.35 38.95 L28.7 38.75 27.25 37.9 26.9 37.5 26.6 37.15 26.05 36.3 25.95 36.15 Q25.45 35.5 25.1 34.3 L25.05 34.1 Q24.65 32.5 24.65 30.95 24.65 27.75 25.3 26.4 L27.85 27.65 30.55 28.95 32.45 29.8 35.4 31.15 35.35 31.75 M46.65 32.8 Q46.45 33.05 46.4 33.45 L46.4 33.6 46.4 34.4 Q46.45 35.0 47.1 35.0 L47.65 34.75 47.8 34.4 47.95 33.45 Q47.95 32.5 47.25 32.5 46.85 32.5 46.65 32.8 M26.0 29.05 L25.5 29.6 25.4 29.8 25.3 30.85 Q25.3 31.5 25.7 32.0 L26.45 32.5 26.95 32.45 27.55 31.85 27.75 30.6 Q27.75 29.8 27.4 29.35 27.05 28.9 26.55 28.9 L26.0 29.05"
                  fill="#371b0a" fill-rule="evenodd" stroke="none"/>
            <path d="M49.0 40.45 L49.2 40.4 49.15 40.6 Q48.75 41.7 47.55 43.2 L45.55 45.4 Q45.0 45.45 44.95 44.55 44.85 43.4 45.7 42.4 46.5 41.5 48.05 40.65 L49.0 40.45 M22.95 40.35 L23.7 42.2 Q23.85 43.4 23.65 44.3 L23.0 45.65 22.55 46.05 21.9 46.4 20.25 46.45 Q19.45 45.75 18.55 45.55 L17.7 45.45 17.5 45.35 Q15.8 44.45 15.0 43.3 14.1 42.05 14.3 40.5 14.65 37.6 17.05 37.25 19.6 37.05 21.3 38.4 L22.4 39.5 22.95 40.35"
                  fill="#ffaabd" fill-rule="evenodd" stroke="none"/>
            <path d="M43.75 35.4 L43.75 35.0 Q43.7 33.6 43.9 32.6 L47.0 31.7 48.25 31.35 50.35 30.5 50.55 32.7 Q50.55 35.55 49.9 37.35 L49.3 38.55 49.1 38.9 48.35 39.6 46.8 40.05 Q45.5 40.05 44.75 38.7 L44.55 38.2 44.5 38.05 44.05 37.0 43.75 35.4 M35.35 31.75 L35.0 34.35 34.6 35.95 33.8 37.8 33.4 38.4 Q32.0 40.45 29.5 40.45 26.8 40.45 25.0 38.9 L24.05 37.95 23.05 36.45 22.75 35.85 Q21.1 32.35 21.1 27.05 L21.35 24.55 25.3 26.4 27.85 27.65 30.55 28.95 32.45 29.8 35.4 31.15 35.35 31.75"
                  fill="none" stroke="#2c1507" stroke-linecap="round" stroke-linejoin="round" stroke-width="1.0"/>
            <path d="M29.5 -1.45 L26.0 1.6 22.15 5.3 23.5 6.45 24.4 7.25 29.7 3.0 Q33.5 -0.2 36.15 -1.45 M30.4 12.4 L29.85 12.0 24.4 7.25 M14.8 -1.45 L17.05 0.65 18.45 1.9 22.15 5.3 M6.05 -1.45 L6.65 -0.85 7.6 0.1 9.35 2.0 12.35 5.3 13.3 6.45 15.35 9.0 15.5 9.25 18.75 14.1 M34.0 9.85 Q32.75 9.6 32.45 10.1 31.95 10.7 32.0 11.85 31.95 12.65 31.1 12.65 L30.5 12.5 31.45 13.25 M42.75 16.8 L45.95 20.1 46.3 20.5 48.05 22.85 48.35 19.3 49.3 9.15 Q49.3 2.3 48.05 -1.45 M42.9 -1.45 Q43.75 -0.3 43.7 1.95 43.65 4.35 42.4 9.85 L40.85 14.9 42.75 16.8 M50.8 38.4 Q51.8 35.0 51.2 31.15 50.5 26.6 48.05 22.85 M50.2 40.15 L50.8 38.4 M49.65 41.25 L50.2 40.15 M25.8 48.8 L25.9 48.8 31.8 49.55 36.3 49.55 37.2 49.5 38.7 49.4 Q43.6 48.7 46.85 45.25 L48.15 43.65 49.65 41.25 M40.85 14.9 Q36.5 10.55 35.1 10.1 L34.0 9.85 M30.5 12.5 L30.4 12.4 M5.65 54.95 L5.9 54.7 7.3 53.35 10.55 49.9 Q13.45 46.75 15.8 45.85 L15.2 45.6 Q9.05 43.0 8.95 41.2 8.9 40.4 9.0 40.2 9.05 40.0 9.8 39.55 10.55 39.05 10.5 38.6 L9.85 37.65 Q9.05 36.95 7.0 36.1 4.15 34.85 3.7 33.4 L3.6 32.85 Q3.6 31.45 6.35 30.2 7.8 29.5 8.5 28.5 9.05 27.75 9.05 26.75 9.05 25.7 8.5 25.05 L7.4 24.25 3.8 23.45 Q1.4 22.95 0.2 22.0 -1.35 20.6 -1.4 17.65 L-1.4 17.6 Q-1.4 15.35 -0.6 14.15 0.2 12.95 1.8 12.95 3.15 12.95 5.7 13.85 8.25 14.8 10.0 14.8 L10.6 14.8 11.8 13.3 Q11.3 12.8 10.0 12.25 7.45 11.05 7.4 8.7 7.35 6.35 11.15 6.35 L13.3 6.45 M10.6 14.8 L11.5 14.55 12.0 14.2 Q12.3 13.8 11.8 13.3 M-1.85 23.9 L-0.5 24.05 Q1.35 24.4 2.45 25.25 3.5 26.05 3.5 26.85 3.5 27.85 1.7 28.5 -0.1 29.15 -0.1 29.55 L0.0 30.0 0.15 30.6 Q0.15 31.4 -0.75 31.7 L-1.85 31.95 M-1.85 51.6 Q-0.85 52.8 0.3 52.8 1.0 52.8 1.65 51.85 2.35 50.9 2.8 50.9 L3.2 51.05 3.8 51.45 Q4.5 52.0 4.85 52.0 L5.65 51.55 6.05 50.7 Q5.05 49.05 3.2 47.4 L2.6 46.85 2.5 46.8 Q0.0 44.7 -1.85 44.45 M17.7 45.45 L15.8 45.85 M17.7 45.45 L18.55 45.55 Q19.45 45.75 20.25 46.45 L20.7 46.85 M17.5 54.95 L17.5 54.9 17.8 54.35 18.7 52.75 19.15 51.95 19.35 51.65 19.85 50.95 M24.6 48.6 L23.35 48.35 20.75 47.65 M24.6 48.6 L25.8 48.8 M38.75 51.5 L38.7 49.4 M36.85 52.05 L36.3 49.55 M37.05 52.85 L37.5 54.95 M39.05 54.95 L38.75 51.5 M36.85 52.05 L37.05 52.85 M-0.7 54.95 L-1.85 54.55"
                  fill="none" stroke="#004470" stroke-linecap="round" stroke-linejoin="round" stroke-width="1.0"/>
        </g>
        <g id="shape2" transform="matrix(1.0, 0.0, 0.0, 1.0, 0.0, 0.0)">
            <path d="M50.5 0.0 Q53.95 0.0 53.95 3.3 L53.95 50.15 Q53.95 53.4 50.5 53.4 L3.3 53.4 Q0.0 53.4 0.0 50.15 L0.0 3.3 Q0.0 0.0 3.3 0.0 L50.5 0.0"
                  fill="#000000" fill-opacity="0.003921569" fill-rule="evenodd" stroke="none"/>
        </g>
    </defs>
</svg>
