<?xml version="1.0" encoding="UTF-8" standalone="no"?>
<svg xmlns:ffdec="https://www.free-decompiler.com/flash" xmlns:xlink="http://www.w3.org/1999/xlink"
     ffdec:objectType="frame" height="30.1px" width="30.0px" xmlns="http://www.w3.org/2000/svg">
    <g transform="matrix(1.0, 0.0, 0.0, 1.0, 0.0, 0.0)">
        <use ffdec:characterId="1" height="30.0" transform="matrix(1.0, 0.0, 0.0, 1.0, 0.0, 0.0)" width="30.0"
             xlink:href="#shape0"/>
        <use ffdec:characterId="3" height="30.0" transform="matrix(1.0, 0.0, 0.0, 1.0, 0.0, 0.1)" width="30.0"
             xlink:href="#sprite0"/>
    </g>
    <defs>
        <g id="shape0" transform="matrix(1.0, 0.0, 0.0, 1.0, 0.0, 0.0)">
            <path d="M0.0 0.0 L30.0 0.0 30.0 30.0 0.0 30.0 0.0 0.0" fill="#33cc66" fill-opacity="0.0"
                  fill-rule="evenodd" stroke="none"/>
        </g>
        <g id="sprite0" transform="matrix(1.0, 0.0, 0.0, 1.0, 0.0, 0.0)">
            <use ffdec:characterId="2" height="30.0" transform="matrix(1.0, 0.0, 0.0, 1.0, 0.0, 0.0)" width="30.0"
                 xlink:href="#shape1"/>
        </g>
        <g id="shape1" transform="matrix(1.0, 0.0, 0.0, 1.0, 0.0, 0.0)">
            <path d="M26.7 0.0 Q30.0 0.0 30.0 3.3 L30.0 26.7 Q30.0 30.0 26.7 30.0 L3.3 30.0 Q0.0 30.0 0.0 26.7 L0.0 3.3 Q0.0 0.0 3.3 0.0 L26.7 0.0"
                  fill="#ffcc99" fill-rule="evenodd" stroke="none"/>
            <path d="M7.5 23.4 Q8.75 25.1 10.75 25.8 L13.7 26.35 15.0 26.5 16.45 26.35 Q17.85 26.3 19.3 25.7 21.15 25.1 22.6 23.4 25.0 20.85 25.15 16.95 L25.15 16.9 25.15 16.5 Q25.15 12.85 24.2 9.75 23.3 7.55 21.6 5.45 L21.5 5.45 Q20.55 4.5 20.05 4.3 19.5 4.1 19.25 4.45 18.95 4.65 18.95 5.15 L19.1 6.8 18.95 7.65 18.95 7.85 16.95 4.6 Q16.05 3.5 15.1 3.5 14.25 3.5 13.3 4.6 12.1 5.95 11.15 7.85 L11.1 6.9 11.1 6.85 11.3 5.85 11.3 5.05 Q10.9 4.5 10.4 4.6 L10.35 4.6 Q9.8 4.6 8.75 5.55 6.8 7.45 5.9 10.2 5.0 12.75 4.85 16.3 L4.85 16.9 4.85 16.95 Q5.05 20.85 7.5 23.4 Z"
                  fill="none" stroke="#ffffff" stroke-linecap="round" stroke-linejoin="round" stroke-width="3.5"/>
            <path d="M8.8 20.85 L8.55 20.6 Q9.3 22.7 10.45 24.7 9.1 24.1 8.2 22.95 5.9 20.55 5.8 16.9 L5.8 16.3 Q5.85 12.9 6.8 10.45 7.65 7.85 9.4 6.2 L10.1 5.45 Q7.5 11.4 7.7 16.6 L8.55 15.9 Q9.35 15.35 10.3 15.6 L10.55 15.65 13.65 16.2 13.7 16.2 15.0 16.3 16.55 16.2 19.55 15.65 19.6 15.65 19.85 15.6 Q20.8 15.35 21.6 15.9 23.1 16.85 22.7 18.35 L21.75 20.4 21.6 20.6 19.85 18.95 21.65 17.0 19.85 18.95 21.6 20.6 21.1 21.05 19.85 21.95 19.55 22.15 18.15 22.6 18.1 22.6 15.35 22.95 15.25 22.95 14.9 22.95 13.7 22.8 11.3 22.4 10.2 21.95 Q9.55 21.6 8.95 21.05 L8.8 20.85 10.5 18.95 8.6 17.15 10.5 18.95 8.8 20.85 M10.5 18.95 L12.5 20.85 10.5 18.95 12.3 17.0 10.5 18.95 M19.85 18.95 L17.95 17.15 19.85 18.95 18.15 20.85 19.85 18.95"
                  fill="#ffffff" fill-rule="evenodd" stroke="none"/>
            <path d="M10.75 25.7 Q8.75 25.1 7.5 23.4 5.05 20.85 4.85 16.95 L4.85 16.9 4.85 16.3 Q5.0 12.75 5.9 10.2 6.8 7.45 8.75 5.55 9.8 4.6 10.35 4.6 L10.4 4.6 Q10.9 4.5 11.3 5.05 L11.3 5.85 11.1 6.85 11.1 6.9 11.15 7.85 Q12.1 5.95 13.3 4.6 14.25 3.5 15.1 3.5 16.05 3.5 16.95 4.6 L18.95 7.85 18.95 7.65 19.1 6.8 18.95 5.15 Q18.95 4.65 19.25 4.45 19.5 4.1 20.05 4.3 20.55 4.5 21.5 5.45 L21.6 5.45 Q23.3 7.55 24.2 9.75 25.15 12.85 25.15 16.5 L25.15 16.9 25.15 16.95 Q25.0 20.85 22.6 23.4 21.15 25.1 19.3 25.7 17.85 26.3 16.45 26.35 L15.0 26.5 13.7 26.35 10.75 25.8 10.75 25.7 M21.6 20.6 L21.75 20.4 22.7 18.35 Q23.1 16.85 21.6 15.9 20.8 15.35 19.85 15.6 L19.6 15.65 19.55 15.65 16.55 16.2 15.0 16.3 13.7 16.2 13.65 16.2 10.55 15.65 10.3 15.6 Q9.35 15.35 8.55 15.9 L7.7 16.6 Q7.5 11.4 10.1 5.45 L9.4 6.2 Q7.65 7.85 6.8 10.45 5.85 12.9 5.8 16.3 L5.8 16.9 Q5.9 20.55 8.2 22.95 9.1 24.1 10.45 24.7 9.3 22.7 8.55 20.6 L8.8 20.85 8.95 21.05 Q9.55 21.6 10.2 21.95 L11.3 22.4 13.7 22.8 14.9 22.95 15.25 22.95 15.35 22.95 18.1 22.6 18.15 22.6 19.55 22.15 19.85 21.95 21.1 21.05 21.6 20.6 21.85 20.85 21.6 20.6"
                  fill="url(#gradient0)" fill-rule="evenodd" stroke="none"/>
            <path d="M10.75 25.8 L13.7 26.35 15.0 26.5 16.45 26.35 Q17.85 26.3 19.3 25.7 21.15 25.1 22.6 23.4 25.0 20.85 25.15 16.95 L25.15 16.9 25.15 16.5 Q25.15 12.85 24.2 9.75 23.3 7.55 21.6 5.45 L21.5 5.45 Q20.55 4.5 20.05 4.3 19.5 4.1 19.25 4.45 18.95 4.65 18.95 5.15 L19.1 6.8 18.95 7.65 18.95 7.85 16.95 4.6 Q16.05 3.5 15.1 3.5 14.25 3.5 13.3 4.6 12.1 5.95 11.15 7.85 L11.1 6.9 11.1 6.85 11.3 5.85 11.3 5.05 Q10.9 4.5 10.4 4.6 L10.35 4.6 Q9.8 4.6 8.75 5.55 6.8 7.45 5.9 10.2 5.0 12.75 4.85 16.3 L4.85 16.9 4.85 16.95 Q5.05 20.85 7.5 23.4 8.75 25.1 10.75 25.7"
                  fill="none" stroke="#663300" stroke-linecap="round" stroke-linejoin="round" stroke-width="1.0"/>
            <path d="M8.8 20.85 L10.5 18.95 8.6 17.15 M21.65 17.0 L19.85 18.95 21.6 20.6 21.85 20.85 M19.85 18.95 L18.15 20.85 M17.95 17.15 L19.85 18.95 M10.5 18.95 L12.3 17.0 M12.5 20.85 L10.5 18.95"
                  fill="none" stroke="#673718" stroke-linecap="round" stroke-linejoin="round" stroke-width="1.5"/>
        </g>
        <linearGradient gradientTransform="matrix(0.0, 0.0116, -0.0124, 0.0, 15.0, 15.2)" gradientUnits="userSpaceOnUse"
                        id="gradient0" spreadMethod="pad" x1="-819.2" x2="819.2">
            <stop offset="0.0" stop-color="#f4a24f"/>
            <stop offset="1.0" stop-color="#ff6600"/>
        </linearGradient>
    </defs>
</svg>
