<?xml version="1.0" encoding="UTF-8" standalone="no"?>
<svg xmlns:ffdec="https://www.free-decompiler.com/flash" xmlns:xlink="http://www.w3.org/1999/xlink"
     ffdec:objectType="frame" height="85.0px" width="158.0px" xmlns="http://www.w3.org/2000/svg">
    <g transform="matrix(1.0, 0.0, 0.0, 1.0, 1.0, 1.0)">
        <use ffdec:characterId="54" height="99.0" transform="matrix(1.5714, 0.0, 0.0, 0.8265, -0.45, 0.003)"
             width="99.0" xlink:href="#shape0"/>
        <clipPath id="clip1">
            <path d="M 0,0 L -62.0,0 L -62.0,-64.0 L 0,-64.0 Z"/>
        </clipPath>
        <clipPath id="clip2">
            <path d="M 0,63.0 L -62.0,63.0 L -62.0,77.0 L 0,77.0 Z"/>
        </clipPath>
        <clipPath id="clip3">
            <path d="M 62.0,0 L 76.0,0 L 76.0,-64.0 L 62.0,-64.0 Z"/>
        </clipPath>
        <clipPath id="clip4">
            <path d="M 62.0,63.0 L 76.0,63.0 L 76.0,77.0 L 62.0,77.0 Z"/>
        </clipPath>
        <clipPath id="clip5">
            <path d="M -62.0,0 L -14.0,0 L -14.0,-64.0 L -62.0,-64.0 Z"/>
        </clipPath>
        <clipPath id="clip6">
            <path d="M 0,-64.0 L -62.0,-64.0 L -62.0,-14.0 L 0,-14.0 Z"/>
        </clipPath>
        <clipPath id="clip7">
            <path d="M -62.0,-14.0 L -14.0,-14.0 L -14.0,0.0 L -62.0,0.0 Z"/>
        </clipPath>
        <clipPath id="clip8">
            <path d="M -14.0,-64.0 L 0.0,-64.0 L 0.0,-14.0 L -14.0,-14.0 Z"/>
        </clipPath>
        <clipPath id="clip9">
            <path d="M -62.0,-64.0 L -14.0,-64.0 L -14.0,-14.0 L -62.0,-14.0 Z"/>
        </clipPath>
        <filter id="filter0">
            <feColorMatrix in="SourceGraphic" result="filterResult0" type="matrix"
                           values="1.0984148 0.07190921 0.009676002 0.0 -0.04482353 0.03641481 1.1339091 0.009676002 0.0 -0.04482353 0.03641481 0.07190921 1.0716759 0.0 -0.04482353 0.0 0.0 0.0 1.0 0.0"/>
        </filter>
        <g ffdec:characterId="56" filter="url(#filter0)">
            <use clip-path="url(#clip1)" transform="matrix(1.0, 0.0, 0.0, 1.0, -151.4886, -79.3238)"
                 xlink:href="#sprite0"/>
            <use clip-path="url(#clip2)" transform="matrix(1.0, 0.0, 0.0, 1.0, -151.4886, -75.8619)"
                 xlink:href="#sprite0"/>
            <use clip-path="url(#clip3)" transform="matrix(1.0, 0.0, 0.0, 1.0, -74.5693, -79.3238)"
                 xlink:href="#sprite0"/>
            <use clip-path="url(#clip4)" transform="matrix(1.0, 0.0, 0.0, 1.0, -74.5693, -75.8619)"
                 xlink:href="#sprite0"/>
            <use clip-path="url(#clip5)" transform="matrix(1.6203, 0.0, 0.0, 1.0, -112.7498, -79.3238)"
                 xlink:href="#sprite0"/>
            <use clip-path="url(#clip6)" transform="matrix(1.0, 0.0, 0.0, 1.0273, -151.4886, -77.5764)"
                 xlink:href="#sprite0"/>
            <use clip-path="url(#clip7)" transform="matrix(1.6203, 0.0, 0.0, 1.0, -112.7498, -75.8619)"
                 xlink:href="#sprite0"/>
            <use clip-path="url(#clip8)" transform="matrix(1.0, 0.0, 0.0, 1.0273, -74.5693, -77.5764)"
                 xlink:href="#sprite0"/>
            <use clip-path="url(#clip9)" transform="matrix(1.6203, 0.0, 0.0, 1.0273, -112.7498, -77.5764)"
                 xlink:href="#sprite0"/>
        </g>
        <use ffdec:characterId="667" height="82.05" transform="matrix(1.0, 0.0, 0.0, 1.0, 0.05, -0.4)" width="154.45"
             xlink:href="#shape2"/>
    </g>
    <defs>
        <g id="shape0" transform="matrix(1.0, 0.0, 0.0, 1.0, -2.1, -2.0)">
            <path d="M13.1 2.5 L90.1 2.5 Q100.6 2.5 100.6 13.0 L100.6 90.0 Q100.6 100.5 90.1 100.5 L13.1 100.5 Q2.6 100.5 2.6 90.0 L2.6 13.0 Q2.6 2.5 13.1 2.5"
                  fill="#000000" fill-rule="evenodd" stroke="none"/>
            <path d="M13.1 2.5 L90.1 2.5 Q100.6 2.5 100.6 13.0 L100.6 90.0 Q100.6 100.5 90.1 100.5 L13.1 100.5 Q2.6 100.5 2.6 90.0 L2.6 13.0 Q2.6 2.5 13.1 2.5 Z"
                  fill="none" stroke="#33eeee" stroke-linecap="round" stroke-linejoin="round" stroke-width="1.0"/>
        </g>
        <g id="sprite0" transform="matrix(1.0, 0.0, 0.0, 1.0, 75.5, 76.7)">
            <use ffdec:characterId="55" height="76.7" transform="matrix(1.0, 0.0, 0.0, 1.0, -75.5, -76.7)" width="75.5"
                 xlink:href="#shape1"/>
        </g>
        <g id="shape1" transform="matrix(1.0, 0.0, 0.0, 1.0, 75.5, 76.7)">
            <path d="M0.0 -66.15 L0.0 -64.0 -0.1 -13.9 -0.1 -9.2 -0.35 -7.15 Q-1.3 -3.25 -4.3 -1.5 -4.7 -1.25 -5.25 -0.95 L-6.5 -0.5 -7.9 -0.2 -10.3 0.0 -13.9 0.0 -62.5 -0.1 -65.15 -0.1 -68.95 -0.55 -70.2 -1.0 -71.15 -1.55 Q-74.15 -3.3 -75.05 -7.2 L-75.35 -9.25 -75.35 -13.9 -75.4 -64.0 -75.4 -66.7 -75.1 -68.9 Q-74.6 -71.6 -73.15 -73.35 L-72.65 -73.95 Q-71.45 -75.1 -69.75 -75.75 L-67.4 -76.35 -64.75 -76.6 -62.5 -76.6 -13.9 -76.55 -9.6 -76.55 -6.85 -76.1 -5.7 -75.75 -4.7 -75.25 Q-3.65 -74.75 -2.8 -73.95 L-2.3 -73.35 -1.1 -71.45 -0.3 -68.9 -0.05 -66.9 -0.05 -66.7 0.0 -66.15"
                  fill="#0e1525" fill-rule="evenodd" stroke="none"/>
            <path d="M-65.15 -76.7 L-62.5 -76.7 -13.9 -76.7 -7.9 -76.7 -13.95 -74.35 Q-24.65 -69.9 -33.3 -64.0 -53.15 -50.6 -62.5 -29.7 -65.85 -22.25 -67.85 -13.9 -69.3 -8.0 -70.05 -1.65 -75.5 -1.65 -75.5 -6.95 L-75.5 -13.9 -75.5 -64.0 -75.5 -66.25 Q-75.5 -76.15 -65.15 -76.7"
                  fill="url(#gradient0)" fill-rule="evenodd" stroke="none"/>
        </g>
        <linearGradient gradientTransform="matrix(0.0353, 0.0356, 0.0433, -0.0435, -54.4, -75.2)"
                        gradientUnits="userSpaceOnUse" id="gradient0" spreadMethod="pad" x1="-819.2" x2="819.2">
            <stop offset="0.0" stop-color="#ccffff" stop-opacity="0.29803923"/>
            <stop offset="1.0" stop-color="#d6d6d6" stop-opacity="0.0"/>
        </linearGradient>
        <g id="shape2" transform="matrix(1.0, 0.0, 0.0, 1.0, -0.05, 0.4)">
            <path d="M66.5 0.15 L67.1 0.8 Q79.7 14.6 79.6 33.05 L79.6 33.7 84.3 33.7 84.3 33.0 Q84.4 14.5 72.75 0.15 M53.35 81.1 Q60.45 77.8 66.75 72.2 83.1 57.55 84.2 35.75 L84.3 33.7 93.65 33.7 93.65 32.95 Q93.75 14.9 84.35 0.15 M70.7 81.1 L73.0 79.1 Q92.2 61.95 93.55 36.2 L93.65 33.7 154.0 33.7 M0.65 33.7 L10.5 33.7 52.5 33.7 79.6 33.7 79.45 35.5 Q78.5 55.4 63.55 68.75 49.2 81.7 29.8 81.1 L28.65 81.05 Q12.45 80.2 0.55 70.35"
                  fill="none" stroke="#b9ebeb" stroke-linecap="round" stroke-linejoin="round"
                  stroke-opacity="0.14901961" stroke-width="1.0"/>
            <path d="M52.5 33.7 Q52.25 41.95 46.35 47.85 40.15 54.0 31.5 54.0 22.8 54.0 16.65 47.85 10.7 41.95 10.5 33.7 M10.5 33.2 L10.5 32.5 Q10.5 23.8 16.65 17.65 22.8 11.5 31.5 11.5 40.15 11.5 46.35 17.65 52.5 23.8 52.5 32.5 L52.5 33.2"
                  fill="none" stroke="#b9ebeb" stroke-linecap="round" stroke-linejoin="round"
                  stroke-opacity="0.49803922" stroke-width="1.5"/>
            <path d="M63.45 2.0 L64.35 2.95 M68.55 8.25 L69.3 9.45 M70.0 10.6 L70.7 11.8 M65.25 4.0 L66.1 5.05 M66.95 6.1 L67.75 7.2 M61.55 0.1 L62.55 1.05 M74.35 20.75 L74.65 22.1 M71.3 13.0 L71.95 14.25 M72.5 15.5 L73.05 16.8 M73.5 18.1 L73.95 19.45 M75.45 26.2 L75.65 27.65 M75.75 29.0 L75.85 30.4 M75.85 31.8 L75.85 34.55 M75.5 38.7 L75.35 40.1 M75.05 41.45 L74.85 42.85 M74.55 44.2 L74.2 45.55 M73.75 46.9 L73.35 48.2 M75.75 35.95 L75.65 37.35 M74.95 23.45 L75.25 24.85 M6.35 70.55 L5.2 69.85 M4.15 69.0 L3.15 68.15 M2.1 67.35 L1.1 66.45 M8.55 71.95 L7.45 71.3 M10.9 73.2 L9.75 72.65 M18.2 76.1 L16.95 75.7 M15.75 75.3 L14.5 74.85 M33.8 77.75 L32.5 77.8 M36.45 77.55 L35.1 77.7 M39.05 77.15 L37.75 77.4 M25.95 77.55 L24.65 77.4 M28.55 77.75 L27.25 77.65 M31.2 77.85 L29.9 77.8 M23.35 77.15 L22.1 76.95 M13.3 74.3 L12.1 73.8 M20.8 76.7 L19.45 76.4 M71.8 52.05 L71.15 53.3 M72.9 49.5 L72.35 50.8 M69.15 56.9 L68.4 57.95 M70.55 54.5 L69.85 55.7 M67.65 59.1 L66.75 60.15 M64.15 63.3 L63.2 64.25 M62.2 65.2 L61.15 66.2 M65.9 61.25 L65.05 62.3 M60.25 66.95 L59.2 67.85 M53.8 71.7 L52.65 72.4 M56.0 70.3 L54.95 71.05 M58.2 68.7 L57.1 69.5 M51.5 73.0 L50.3 73.65 M46.65 75.15 L45.4 75.6 M44.15 76.0 L42.9 76.35 M49.1 74.15 L47.9 74.7 M41.6 76.65 L40.35 76.95"
                  fill="none" stroke="#b9ebeb" stroke-linecap="round" stroke-linejoin="round"
                  stroke-opacity="0.14901961" stroke-width="1.0"/>
            <path d="M31.2 0.25 L31.2 81.1" fill="none" stroke="#b9ffff" stroke-linecap="round" stroke-linejoin="round"
                  stroke-opacity="0.14901961" stroke-width="1.0"/>
            <path d="M57.5 30.0 L147.5 30.0 M57.5 51.5 L147.5 51.5" fill="none" stroke="url(#gradient1)"
                  stroke-linecap="round" stroke-linejoin="round" stroke-width="2.0"/>
        </g>
        <linearGradient gradientTransform="matrix(0.0562, 0.0, 0.0, 0.0143, 102.45, 40.75)"
                        gradientUnits="userSpaceOnUse" id="gradient1" spreadMethod="pad" x1="-819.2" x2="819.2">
            <stop offset="0.011764705882352941" stop-color="#00ebf5" stop-opacity="0.0"/>
            <stop offset="0.5098039215686274" stop-color="#00ebf5"/>
            <stop offset="1.0" stop-color="#00ebf5" stop-opacity="0.0"/>
        </linearGradient>
    </defs>
</svg>
